<svg enable-background="new 0 0 1600 1200" fill="none" height="1200" viewBox="0 0 1600 1200" width="1600" xmlns="http://www.w3.org/2000/svg"><path d="m735.2 960.429h-567.75l-29.6-299.82c-.672-6.753.679-13.555 3.88-19.54l75.14-140.47c2.773-5.191 6.85-9.571 11.83-12.71l109.13-68.57c5.327-3.353 11.495-5.131 17.79-5.13h124.62c4.848.008 9.638 1.067 14.037 3.107 4.399 2.039 8.303 5.008 11.443 8.703l118.75 138.68c2.013 2.355 4.342 4.422 6.92 6.14l79.52 53.06c4.513 3.026 8.238 7.087 10.863 11.845 2.625 4.757 4.074 10.074 4.227 15.505z" fill="#f4f4f4"/><path d="m349.21 741.9h15.33l-30.88 217.62h-6z" fill="#b1b5ba"/><path d="m327.67 959.521h2.57l24.35-207.611c.096-1.141.582-2.215 1.376-3.042.794-.826 1.847-1.355 2.984-1.498l5-.51.62-4.88h-15.35z" fill="#858990"/><path d="m302.15 741.9h15.33l-30.9 217.62h-6z" fill="#b1b5ba"/><path d="m280.58 959.52h2.57l15.7-128.81 4.75-2.94 13.18-81 .62-4.87h-15.33z" fill="#858990"/><path d="m469.84 959.64h-6l-26.34-213.79h15.31z" fill="#b1b5ba"/><path d="m466 959.64-14.58-128.81 6.33-1.5-10.47-83.56h-9.85l26.37 213.779h2.25z" fill="#858990"/><path d="m466.78 730.01h-177.34c-2.64 0-4.78 2.14-4.78 4.78v9.14c0 2.64 2.14 4.78 4.78 4.78h177.34c2.64 0 4.78-2.14 4.78-4.78v-9.14c0-2.64-2.14-4.78-4.78-4.78z" fill="#21252b"/><path d="m591.279 622.609h-1l1-.089z" fill="#000"/><path d="m553.92 602.66 13.08 1.75 28-2.49c2.431.051 4.747 1.044 6.46 2.77l17.26 15.42c.525.472.847 1.129.899 1.834.052.704-.17 1.401-.619 1.946-.448.552-1.092.908-1.797.994s-1.416-.106-1.983-.534l-16.34-12 10.61 12.55c.28.328.476.718.573 1.138.097.419.091.856-.017 1.273s-.315.802-.603 1.122-.65.566-1.053.717c-.468.17-.973.208-1.462.111-.488-.097-.94-.326-1.308-.661l-14.22-13.94 10.8 10.61c.296.289.514.647.636 1.042.121.395.142.814.059 1.219-.082.405-.265.783-.532 1.099-.266.316-.608.56-.993.71-.391.161-.816.22-1.236.171s-.821-.205-1.164-.451l-15.15-11.06 10.25 7.57c.279.2.506.463.662.769.157.305.239.643.239.986s-.082.681-.239.986c-.156.305-.383.569-.662.769-.302.22-.654.36-1.024.409-.371.049-.747.005-1.096-.129l-13.76-5.73c-.659-.282-1.37-.418-2.086-.401s-1.42.188-2.064.501l-5.26 2.58c-3.16 1.49-7.56 1.17-12.27 1.17l-10.51-.48c1.91-7.39 7.92-24.34 7.92-24.34z" fill="#fb9c9c"/><path d="m581.29 622c3.14 1.57 8.4 4.25 10.24 5.26 2.59 1.48 3.33-.46 3.33-.46.095.424.068.867-.079 1.276s-.408.768-.751 1.034c-.304.22-.658.361-1.03.41-.371.049-.75.004-1.1-.13l-13.75-5.73c-.659-.281-1.37-.418-2.086-.401-.716.018-1.42.188-2.064.501l2.67-1.57c.701-.391 1.485-.612 2.287-.645.803-.033 1.602.123 2.333.455z" fill="#000" opacity=".15"/><path d="m593.21 624.7c-.051.006-.102.002-.15-.014s-.093-.041-.13-.076l-9.41-6.92c-.19-.19-.28-.47-.1-.65s.47-.28.65-.09l9.42 6.92c.097.075.16.185.177.307.017.121-.014.244-.087.343-.103.095-.232.158-.37.18z" fill="#000" opacity=".0225"/><path d="m601.181 624.09c-.1 0-.28 0-.28-.09l-10.15-10c-.045-.041-.081-.091-.106-.147s-.038-.116-.038-.178c0-.061.013-.121.038-.177s.061-.106.106-.148c.042-.042.091-.075.146-.098s.114-.035.174-.035c.059 0 .118.012.173.035s.105.056.147.098l10.15 10c.045.042.081.092.106.148.024.056.037.116.037.177 0 .062-.013.122-.037.178-.025.056-.061.106-.106.147-.106.072-.233.104-.36.09z" fill="#000" opacity=".0225"/><path d="m642.471 924.73 15.48 32h42.25l3.55-14.36-14.4-7.37c-1.216-.623-2.136-1.702-2.56-3l-6.89-20.67z" fill="#fb9c9c"/><path d="m655.471 932.89 27.12-13.49-2.69-8.06-37.43 13.39 15.48 32h9.8l-13.18-20.55c-.178-.27-.296-.574-.347-.893s-.033-.644.052-.956c.085-.311.236-.601.442-.849.206-.249.463-.451.753-.592z" fill="#000" opacity=".15"/><path d="m541.73 942.34-3.55 14.36h-42.25v-35.59l33.34-2.11v9 6.32c.43 1.295 1.348 2.372 2.56 3z" fill="#fb9c9c"/><path d="m529.29 928-26 4.35c-.633.106-1.202.452-1.587.966s-.558 1.156-.483 1.794l2.59 21.62h-7.91v-28.73z" fill="#000" opacity=".15"/><path d="m735.111 956.449c-.088-2.086-.794-4.1-2.03-5.783s-2.946-2.96-4.91-3.667l-28.44-8.64c-.503-.165-1.05-.123-1.523.115-.472.238-.831.653-.997 1.155-1.08 3.6-3.79 11.34-9.09 16.83l-30.56-.1c-.531 0-1.04.211-1.415.586s-.585.884-.585 1.414.21 1.039.585 1.414.884.586 1.415.586l75.57.1c.53 0 1.039-.211 1.414-.586s.586-.884.586-1.414v-2z" fill="#21252b"/><path d="m570.27 955.78v1.93c-.005.509-.211.996-.572 1.355s-.849.562-1.358.565l-73.74-.1c-.264.019-.53-.017-.78-.105s-.479-.227-.673-.407c-.195-.181-.349-.399-.455-.643-.106-.243-.161-.505-.161-.77s.055-.528.161-.771.26-.461.455-.642c.194-.181.423-.319.673-.407.25-.089.516-.124.78-.105l29.82.1c5.17-5.37 7.81-12.92 8.87-16.43.074-.246.198-.473.363-.67.165-.196.369-.356.598-.471s.479-.183.735-.198.513.022.754.109l18.81 5.72 8.94 2.72c1.915.687 3.581 1.93 4.787 3.568 1.206 1.639 1.896 3.599 1.983 5.632z" fill="#21252b"/><path d="m682.129 917.999-36.72 12.88-94.11-198h-153.86v-69l175.73.92c11.25-.44 16.36 6.74 20.4 18.65z" fill="#3f4249"/><path d="m665.999 923.69-20.59 7.22-93.89-198h-154.08v-69h131.49c19.14.09 23.75 0 31.19 14.14z" fill="#000" opacity=".15"/><path d="m533.999 928h-44.14c-5.91-94-14-175.29-11.84-195.1h-134.48c-9.788 0-19.176-3.887-26.099-10.806-6.923-6.92-10.816-16.306-10.821-26.094v-32.17h197 1.3c14.84.64 26.41 13.18 26.59 28z" fill="#3f4249"/><path d="m492 714.41c-2.59-.9-134.49 0-134.49 0-8.66 0-15.72-3-21-8-11.09-10.55-11.51-28.18-1.51-39.8l2.4-2.78h-30.64v32.17c0 9.792 3.89 19.183 10.813 26.106 6.924 6.924 16.315 10.814 26.107 10.814h134.48c-1.79 36.67 6.61 112.13 11.55 190.24h14.43s-10.55-207.16-12.14-208.75z" fill="#000" opacity=".15"/><path d="m554.62 602.569-89.21-20.57-25.66-67c-7.37-19.21-48.54-.16-47.65 2.43l34.58 87.27c2.13 5.38 5.95 7.71 13.25 8.39l110.29 14.42z" fill="#4d61fc"/><path d="m452.9 549.31-37.26 9.16-4.55 1.12-8.59-29 .8-37.69 20.59 3.38c6.14 2.34 10.78 6.38 12.93 11.25z" fill="#4d61fc"/><path d="m443.351 610.819c-7.31-.68-11.13-3-13.26-8.39l-28.95-88.21c-.06-.18-9.22 2.7-9 3.21l34.58 87.27c2.13 5.38 5.95 7.71 13.25 8.39l110.29 14.42.49-2.81z" fill="#000" opacity=".15"/><path d="m423.92 496.32-7.48 56.06-.8 6.08-1 7.42-2.43 18.37-.18 8.87-.28 13.51-.58 27.57v.69l.84 11 1 13.37c.12 1.43-.044 2.869-.483 4.234-.439 1.366-1.144 2.631-2.075 3.723-.931 1.091-2.068 1.988-3.348 2.637-1.279.65-2.674 1.039-4.104 1.146-34.51 2.35-76.79-1.38-93.69 1.84-.678.125-1.375.109-2.047-.048-.672-.158-1.303-.452-1.856-.865-.552-.414-1.013-.937-1.353-1.537s-.553-1.264-.624-1.95l-1.24-17.35-2.07-28.83-8.63-120.49-.15-2 16.46-4.47 2.54-.68.25-.07 26.62-7.23 48.07 2.68 18 3 20.59 3.38z" fill="#4d61fc"/><path d="m414.661 565.891-2.43 18.37-.18 8.87h-94.58v-27.24z" fill="#000" opacity=".15"/><path d="m416.441 552.391-1.78 13.5h-97.19v-13.5z" fill="#000" opacity=".3"/><path d="m412.051 593.16-.28 13.51h-94.3v-13.51z" fill="#000" opacity=".3"/><path d="m303.13 664.579 105.35-2.68c.198-.886.229-1.802.09-2.7l-106.57-10.41z" fill="#000" opacity=".15"/><path d="m411.29 635 1-50.68 5.31-41.41c.013-.126-.001-.253-.041-.373-.039-.121-.103-.231-.188-.326-.085-.094-.188-.169-.304-.221-.115-.052-.24-.079-.367-.08-.212-.001-.417.073-.58.208-.162.136-.272.324-.31.532l-8.07 41.7-1 50.68 1.84 24.41c.098 1.421-.085 2.848-.539 4.198s-1.169 2.598-2.105 3.671c-.936 1.074-2.075 1.952-3.351 2.586-1.276.633-2.664 1.009-4.085 1.105-8.66.6-5.55.69 4.57 0 1.426-.099 2.818-.478 4.096-1.117 1.279-.639 2.418-1.524 3.353-2.605s1.647-2.336 2.095-3.693.624-2.79.516-4.215z" fill="#000" opacity=".15"/><path d="m416.24 635.11-4.24 10.89-5.28 13.56-99.61-7.56c-1.676-.127-3.335-.426-4.95-.89-5.009-1.485-9.479-4.39-12.869-8.364s-5.555-8.846-6.231-14.026l-.93-6.58-12.35-86.9c-1.11-12.36 6.37-26.11 21.68-33.45.91-.44 1.85-.86 2.82-1.25l13.52-5.27 2.54-.68 15.87 125 85 14.65z" fill="#4d61fc"/><path d="m326.21 619.589-26.12 2.65-17.66 1.76-.3-1.94-13-82.58c-1.242-6.874-.443-13.962 2.297-20.388 2.741-6.426 7.303-11.909 13.123-15.772 2.147-1.393 4.4-2.613 6.74-3.65l16.46-4.47 2.54-.68.25-.07z" fill="#4d61fc"/><path d="m448.061 654.32h-1l1-.09z" fill="#000"/><path d="m410.689 634.369 13.11 1.75 28-2.49c2.43.055 4.745 1.048 6.46 2.77l17.26 15.41c.524.476.845 1.135.895 1.841s-.173 1.404-.625 1.949c-.447.552-1.092.908-1.797.994s-1.416-.106-1.983-.534l-16.34-12 10.62 12.55c.28.328.476.719.572 1.139.096.421.089.858-.02 1.275s-.317.802-.606 1.121c-.289.32-.651.565-1.056.715-.468.168-.973.206-1.461.109s-.94-.325-1.309-.659l-14.21-13.94 10.8 10.63c.296.288.515.645.637 1.039.122.395.142.814.059 1.218-.082.404-.266.782-.532 1.097-.267.315-.609.558-.994.706-.389.166-.815.228-1.235.181-.421-.047-.822-.203-1.165-.451l-15.17-11.1 10.24 7.57c.279.2.506.463.663.769.156.305.238.643.238.986s-.082.681-.238.986c-.157.305-.384.569-.663.769-.301.221-.654.361-1.025.408s-.747 0-1.095-.138l-13.72-5.72c-.66-.28-1.372-.417-2.089-.402-.717.016-1.423.183-2.071.492l-5.29 2.59c-3.16 1.49-7.56 1.17-12.27 1.17l-10.75.08c1.96-7.34 8.16-24.88 8.16-24.88z" fill="#fb9c9c"/><path d="m438.06 653.68c3.14 1.57 8.4 4.25 10.25 5.26 2.58 1.48 3.32-.46 3.32-.46.098.424.073.867-.075 1.277-.147.41-.409.769-.755 1.033-.302.22-.655.361-1.026.408-.37.047-.747 0-1.094-.138l-13.75-5.72c-.661-.28-1.373-.417-2.09-.402-.717.016-1.423.183-2.07.492l2.68-1.56c.696-.4 1.479-.626 2.281-.659.803-.033 1.601.128 2.329.469z" fill="#000" opacity=".15"/><path d="m450 656.41c-.049.007-.099.002-.146-.014-.046-.015-.089-.041-.124-.076l-9.42-6.92c-.18-.19-.28-.47-.09-.65.035-.05.081-.092.133-.124.053-.032.111-.053.172-.061.061-.009.123-.005.182.012.06.016.115.045.163.083l9.41 6.92c.049.037.09.083.121.135.031.053.052.111.06.172.008.06.005.122-.011.181s-.043.114-.08.162c-.102.097-.231.16-.37.18z" fill="#000" opacity=".0225"/><path d="m458 655.8c-.09 0-.28 0-.28-.09l-10.15-10c-.045-.042-.082-.092-.108-.149-.025-.057-.039-.118-.04-.18s.01-.123.033-.181c.023-.057.058-.109.102-.153.043-.044.096-.079.153-.102.058-.023.119-.034.181-.033s.123.015.18.041c.056.025.107.062.149.107l10.15 10c.086.087.135.203.135.325s-.049.239-.135.325c-.109.072-.24.104-.37.09z" fill="#000" opacity=".0225"/><path d="m536.151 929.11h-48.94l-.33-7.44h49.27z" fill="#4d61fc"/><path d="m504.141 929.11h-16.89l-.37-7.44h17.26z" fill="#000" opacity=".15"/><path d="m687.35 916.299-46.26 16-2.74-6.929 46.57-16.1z" fill="#4d61fc"/><path d="m665.52 923.85-24.31 8.4-2.86-6.88 24.74-8.55z" fill="#000" opacity=".15"/><path d="m388.17 447.269 1.22-7.49c.749-4.524-.229-9.164-2.74-13l-2.74-4.18c-2.497-3.824-6.334-6.575-10.757-7.713-4.422-1.138-9.111-.581-13.143 1.563l-1.3.69c-2.361 1.253-4.419 3.008-6.03 5.142-1.61 2.133-2.733 4.594-3.29 7.208-.581 1.691-.989 3.437-1.22 5.21l-1.29 7.95-1.39 9.78-5.65 37.89h47.16l-1.35-27.58c.745-2.269 1.218-4.619 1.41-7 .34-2.94.73-5.81 1.11-8.47z" fill="#fa9b9b"/><path d="m409.658 419.544c.659-6.617-4.482-12.547-11.484-13.244-7.001-.698-13.212 4.101-13.871 10.717-.659 6.617 4.482 12.547 11.484 13.244 7.001.698 13.211-4.101 13.871-10.717z" fill="#21252b"/><path d="m398 412.149s8.33 61.41-22.87 62.39c-27 .9-25.8-40.93-25.8-40.93l4-26.81z" fill="#fa9b9b"/><path d="m394.77 385.82c-3.95 0-8.15-.06-11.88 0-2.64 0-5.05 0-7 .09-3.79.088-7.473 1.276-10.6 3.42-.78.545-1.688.879-2.635.972-.948.093-1.903-.059-2.775-.442-.99-.458-2.04-.772-3.12-.93-.53-.073-1.064-.109-1.6-.11-2.564-.006-5.054.866-7.055 2.47-2 1.605-3.392 3.845-3.945 6.35s-.38 2.58-4.11 4.5c-.17.07-.33.16-.49.24l-.46.21-.27.13c-5 2.71-8.43 8.56-8.43 15.35 0 9.37 6.58 17 14.71 17 1.953-.001 3.881-.442 5.64-1.29l.12 1.17c.044.327.201.63.444.854.243.225.556.358.886.376h.05c.187.017.374-.006.551-.067.176-.061.338-.16.473-.289.136-.128.242-.285.312-.458s.102-.36.094-.546l.1-3 .1-3c.051-.436.257-.838.58-1.134s.742-.465 1.18-.476h.11c.679.003 1.354-.102 2-.31 1.246-.402 2.33-1.191 3.095-2.252.764-1.062 1.169-2.34 1.155-3.648.088-1.629.8-3.162 1.988-4.279 1.188-1.118 2.761-1.734 4.392-1.721l17.28.47h1.12l9 .25c1.033-.056 2.047-.29 3-.69 3.443-1 6.41-3.207 8.356-6.219 1.946-3.011 2.74-6.623 2.237-10.172-.504-3.55-2.271-6.799-4.977-9.15-2.707-2.351-6.17-3.647-9.756-3.649z" fill="#21252b"/><path d="m347.301 444.859s2.55.46 4-.49l-5 6.28z" fill="#000" opacity=".15"/><path d="m350.38 428.999s-1.41-5.82-7.59-3.84c-7 2.29-7.13 17.62 4.12 19.65 5.87 1.08 5-2.49 4.51-7.22z" fill="#fa9b9b"/><path d="m342.101 429.1c.491-.312 1.039-.522 1.613-.618s1.161-.077 1.727.058c.536.196 1.024.504 1.431.905.407.4.724.882.929 1.415.598 1.332.833 2.798.68 4.25v1.3c-.007.091-.033.18-.076.26-.043.081-.101.152-.173.209-.071.057-.153.099-.241.123-.088.025-.18.031-.27.018-.091-.006-.18-.031-.261-.072-.081-.042-.152-.099-.211-.169-.058-.071-.101-.152-.126-.239-.026-.088-.033-.179-.022-.27v-1.29c.076-1.208-.108-2.419-.54-3.55-.1-.381-.292-.731-.56-1.019s-.603-.505-.976-.632c-.372-.127-.771-.16-1.159-.095s-.754.225-1.065.466c-.172.088-.372.107-.558.053-.185-.054-.344-.176-.442-.343-.16-.11-.02-.49.3-.76z" fill="#000" opacity=".3"/><path d="m385.811 480.75-.07-9.67c-2.83 2.41-10.4 5.39-18.59 2.58-4.1-1.465-7.631-4.188-10.09-7.78-.043-.072-.1-.134-.168-.183-.067-.049-.144-.083-.226-.101s-.166-.019-.248-.003c-.082.017-.159.049-.228.097-.072.043-.135.101-.183.17-.049.069-.084.146-.101.229-.018.082-.019.167-.003.25s.049.161.097.231c3.205 4.571 8.002 7.781 13.45 9 2.241 1.915 4.844 3.361 7.654 4.251 2.81.889 5.771 1.205 8.706.929z" fill="#000" opacity=".15"/><path d="m378.619 462.529c0 .1-.11.09 0 0l-3.78-.08c-.219-.016-.424-.114-.573-.276s-.23-.375-.227-.594c-.002-.112.02-.224.064-.327s.109-.196.191-.272.179-.135.285-.171.219-.05.33-.04l3.68.07c.5.05.86.38.82.77-.05.6-.41.96-.79.92z" fill="#000" opacity=".09"/><path d="m380.359 459.109c-6.8.32-9.5-3.64-10.41-5.52-.053-.097-.085-.205-.095-.315-.009-.11.005-.222.041-.327.035-.104.093-.201.168-.282.075-.082.166-.147.267-.191.102-.045.212-.068.322-.068.111 0 .221.023.322.068.102.045.193.11.268.192.074.082.131.178.167.283.81 1.87 3.78 6.05 12.13 4.19.101-.022.204-.025.306-.007.101.018.198.056.285.111s.162.127.221.211.101.18.123.28.025.204.007.306c-.018.101-.056.198-.111.285s-.127.162-.211.221-.179.101-.28.123c-1.155.266-2.335.413-3.52.44z" fill="#000" opacity=".09"/><path d="m373.099 440.45c1.37 0 2.48-1.11 2.48-2.48 0-1.369-1.11-2.48-2.48-2.48s-2.48 1.111-2.48 2.48c0 1.37 1.11 2.48 2.48 2.48z" fill="#21252b"/><path d="m374.27 437.789c.276 0 .5-.224.5-.5s-.224-.5-.5-.5c-.277 0-.5.224-.5.5s.223.5.5.5z" fill="#fff"/><path d="m392.63 442.499c1.37 0 2.48-1.11 2.48-2.48s-1.11-2.48-2.48-2.48c-1.369 0-2.48 1.11-2.48 2.48s1.111 2.48 2.48 2.48z" fill="#21252b"/><path d="m393.789 439.84c.276 0 .5-.224.5-.5s-.224-.5-.5-.5-.5.224-.5.5.224.5.5.5z" fill="#fff"/><path d="m382.731 453.28-3.27-.12c-.183-.026-.35-.119-.468-.261-.118-.141-.18-.322-.174-.506.006-.185.08-.36.208-.494.127-.133.3-.214.484-.229l3.27.13c.397.014.784-.132 1.075-.404s.461-.648.475-1.046c.013-.398-.132-.784-.404-1.075s-.649-.461-1.046-.475c-.189-.024-.364-.113-.495-.252-.131-.138-.211-.318-.225-.508-.06-.4.36-.66.76-.72.776.029 1.511.357 2.05.917.539.559.84 1.306.84 2.083-.031.796-.37 1.549-.944 2.101s-1.34.86-2.136.859z" fill="#000" opacity=".09"/><path d="m319.18 539 6.5 22.6 7.47 51.17 73.62 20.7-80.56-13.87-10-80c-.045-.38.054-.762.278-1.071s.556-.523.93-.599c.374-.075.763-.007 1.09.191.326.198.566.512.672.879z" fill="#000" opacity=".15"/><path d="m410.69 634.371-8.16 24.88-14.77-1.16 9.15-27.38z" fill="#000" opacity=".3"/><path d="m387.811 479.886-49.053-3.086c-1.808-.114-3.366 1.259-3.48 3.067l-.434 6.907c-.114 1.808 1.26 3.365 3.067 3.479l49.053 3.086c1.808.114 3.366-1.259 3.48-3.067l.434-6.907c.114-1.808-1.259-3.365-3.067-3.479z" fill="#4d61fc"/><path d="m570.261 955.76h-20.7c2.79-2.56 4.13-6.94 5-11.92l8.94 2.72c1.912.689 3.577 1.932 4.781 3.57 1.204 1.639 1.892 3.598 1.979 5.63z" fill="#fb9c9c"/><path d="m735.12 956.199h-20.7c2.79-2.56 4.13-6.94 5-11.92l8.94 2.72c1.913.689 3.577 1.932 4.781 3.571 1.204 1.638 1.893 3.598 1.979 5.629z" fill="#fb9c9c"/><path d="m735.111 956.45c-.065-1.643-.513-3.248-1.31-4.686-.798-1.438-1.921-2.669-3.28-3.594 3.51 2.52 2.88 5-2.16 4.87-26.19-1.27-33.22-1.27-36.28-1.53.033-.036.058-.079.073-.125.016-.047.021-.096.017-.145-1.151 1.845-2.492 3.564-4 5.13h-30.61c-.531 0-1.04.211-1.415.586s-.585.884-.585 1.414.21 1.039.585 1.414.884.586 1.415.586h75.65c.53 0 1.039-.211 1.414-.586s.586-.884.586-1.414v-1.9h-.09z" fill="#000" opacity=".15"/><path d="m570.17 955.751c-.057-1.645-.503-3.252-1.301-4.691s-1.925-2.669-3.289-3.589c3.51 2.52 2.88 5-2.16 4.86-26.19-1.26-32-1.26-35-1.53.038-.034.066-.076.084-.123.017-.047.023-.098.016-.147-1.154 1.842-2.494 3.561-4 5.13h-29.87c-.53 0-1.039.21-1.414.586-.375.375-.586.883-.586 1.414 0 .53.211 1.039.586 1.414s.884.586 1.414.586h73.63c.531 0 1.04-.211 1.415-.586s.585-.884.585-1.414v-1.89h-.09z" fill="#000" opacity=".15"/><path d="m372.369 491.109h-.05l-37.39-2.45c-.21-.015-.406-.113-.545-.272-.138-.16-.209-.367-.195-.578.018-.21.116-.406.275-.545.158-.14.364-.213.575-.205l37.39 2.46c.105.007.207.034.301.08.095.046.179.111.247.19.069.079.122.171.155.271s.045.205.037.309c-.015.202-.106.39-.254.528-.149.137-.344.213-.546.212z" fill="#000" opacity=".15"/><path d="m438.29 657.279h79.6c.319.008.622.138.847.363.226.226.356.529.363.847v4c-.005.32-.134.625-.36.85-.226.226-.53.355-.85.36h-79.6c-.318-.007-.622-.137-.847-.362-.225-.226-.355-.529-.363-.848v-4c-.002-.159.027-.318.087-.466s.149-.282.262-.395.247-.202.395-.262.307-.089.466-.087z" fill="#fff"/><path d="m517.89 664.221h-79.6c-.451-.008-.881-.19-1.2-.509s-.502-.75-.51-1.201v-4c-.002-.225.04-.449.125-.658.085-.208.211-.398.37-.557.159-.16.349-.285.558-.37.208-.085.432-.128.657-.125h79.6c.451.008.882.19 1.201.509s.501.75.509 1.201v4c-.005.452-.187.884-.506 1.203-.32.32-.752.502-1.204.507zm-79.6-6.44c-.094-.003-.187.014-.275.048-.087.035-.167.087-.233.154-.066.066-.119.146-.153.233-.035.087-.052.181-.049.275v4c.008.186.085.362.216.494.132.131.308.209.494.216h79.6c.186-.007.362-.085.494-.216.132-.132.209-.308.216-.494v-4c-.007-.186-.084-.362-.216-.494s-.308-.209-.494-.216z" fill="#000"/><path d="m438.261 657.279h79.6c.318.008.622.138.847.363.225.226.355.529.363.847v4c-.005.32-.134.625-.36.85-.226.226-.531.355-.85.36h-79.6c-.319-.007-.622-.137-.847-.362-.225-.226-.355-.529-.363-.848v-4c-.003-.159.027-.318.087-.466.059-.148.148-.282.261-.395s.248-.202.396-.262.306-.089.466-.087z" fill="#000"/><path d="m491.841 657.619h138.78c.318.01.62.141.844.366.225.224.356.526.366.844v4c-.008.319-.138.622-.363.847-.225.226-.529.356-.847.363h-138.78c-.319-.007-.622-.137-.847-.363-.226-.225-.356-.528-.363-.847v-4c.023-.313.158-.608.38-.83s.517-.357.83-.38z" fill="#21252b"/><path d="m629 658.589h-141.3c-.224-.023-.431-.129-.582-.296-.15-.167-.233-.384-.233-.609s.083-.441.233-.609c.151-.167.358-.272.582-.296h141.3c.119-.001.237.022.348.067.11.045.211.113.295.197.083.085.15.186.194.297s.065.23.063.349c-.008.237-.105.461-.272.628-.168.168-.392.265-.628.272z" fill="#000"/><path d="m491.661 657.28h20.9c.784.002 1.545-.271 2.15-.772.604-.5 1.015-1.197 1.16-1.968l17.52-92.11c.1-.488.089-.992-.031-1.476-.121-.483-.348-.933-.666-1.317-.317-.384-.717-.692-1.169-.901-.453-.208-.946-.313-1.444-.306h-20.91c-.784.002-1.543.277-2.147.776-.604.5-1.015 1.194-1.163 1.964l-17.51 92.12c-.093.487-.077.988.046 1.468.124.479.352.926.668 1.307.316.382.713.688 1.162.898s.938.318 1.434.317z" fill="#000"/><path d="m494.64 657.28h134.25c.785.002 1.546-.271 2.151-.772.604-.5 1.015-1.197 1.159-1.968l17.52-92.11c.101-.488.09-.992-.03-1.476-.121-.483-.348-.933-.666-1.317s-.717-.692-1.17-.901c-.452-.208-.945-.313-1.444-.306h-134.17c-.784 0-1.544.274-2.148.774s-1.015 1.195-1.162 1.966l-17.52 92.12c-.108.482-.107.982.006 1.463.112.481.332.931.642 1.315.311.384.705.692 1.152.902s.936.316 1.43.31z" fill="#21252b"/><path d="m571.339 605.29c-.81 1.86.08 3.47 1.93 3.47h.33c-1.052 1.205-2.34 2.183-3.785 2.871s-3.016 1.072-4.615 1.129c-4-.08-5.81-3.31-4-7.27s6.38-7 10.34-6.94c2.5.08 4.19 1.37 4.6 3.39-1.024.085-2.008.44-2.851 1.029-.843.588-1.515 1.389-1.949 2.321z" fill="#000" opacity=".6"/><path d="m699.33 664.061h-297.9v12.84h297.9z" fill="#b2b6bb"/><path d="m496.03 664.061h-94.6v12.84h94.6z" fill="#868a91"/><path d="m687.35 737.37h-269.7v-60.47h265.35z" fill="#65676b"/><path d="m417.651 676.9-14.77 282.74h7.74l34.66-282.74z" fill="#65676b"/><path d="m476.68 676.9-7.34 282.74h7.73l27.23-282.74z" fill="#65676b"/><path d="m686.96 685.14h-193.22v-8.24h192.69z" fill="#65676b"/><path d="m393.899 429.13c-1.101-.06-2.203.099-3.243.466s-1.997.936-2.817 1.674c-1.789 1.634-2.979 3.82-3.38 6.21-.472-.252-.994-.396-1.529-.42-.534-.024-1.068.072-1.561.28-.32-5.08-3.84-9.23-8.38-9.54-1.101-.061-2.204.096-3.244.464-1.04.367-1.997.937-2.816 1.676-1.616 1.463-2.747 3.386-3.24 5.51l-2.1-.46c-.104-.028-.212-.034-.319-.019-.106.016-.209.052-.301.108s-.172.13-.235.217c-.063.088-.107.187-.131.292-.023.105-.025.214-.006.32.02.106.06.207.12.296.059.09.136.167.226.227.09.059.191.1.296.119l2.18.48c0 .18 0 .36-.05.54-.34 5.72 3.43 10.64 8.39 11h.53c2.045-.016 4.012-.781 5.53-2.15 2.051-1.887 3.309-4.481 3.52-7.26.424-.343.961-.515 1.505-.482.545.034 1.057.27 1.435.662-.13 5.53 3.56 10.22 8.4 10.55h.53c2.044-.016 4.009-.785 5.52-2.16 2.153-1.966 3.437-4.707 3.57-7.62.33-5.72-3.44-10.64-8.4-10.98zm-17.14 16.08c-.658.6-1.43 1.063-2.27 1.362-.839.299-1.73.427-2.62.378-4.09-.28-7.19-4.44-6.91-9.28 0-.32.06-.63.1-.94.025-.048.045-.098.06-.15.01-.06.01-.12 0-.18.338-2.024 1.345-3.876 2.86-5.26 1.225-1.113 2.815-1.739 4.47-1.76h.42c4.09.27 7.19 4.44 6.9 9.28-.095 2.496-1.177 4.852-3.01 6.55zm23.94-5.21c-.096 2.485-1.175 4.83-3 6.52-.658.604-1.431 1.07-2.272 1.371-.842.3-1.735.429-2.628.379-4.09-.28-7.18-4.44-6.9-9.28.098-2.488 1.177-4.835 3-6.53.659-.603 1.433-1.067 2.274-1.366.842-.299 1.735-.426 2.626-.374 4.09.28 7.2 4.45 6.9 9.28z" fill="#4d61fc"/><path d="m395.91 417h-3.18c-.084-.002-.167-.02-.244-.053-.078-.033-.147-.081-.206-.142-.058-.06-.105-.132-.135-.21-.031-.078-.047-.161-.045-.245 0-.4.27-.67.66-.63h3.18c.401.023.805-.004 1.2-.08 1.335-.294 2.623-.768 3.83-1.41.076-.04.159-.063.244-.07.085-.006.171.004.252.031s.156.07.22.127c.064.056.116.125.154.202.039.075.062.157.069.242.006.084-.004.169-.031.249-.028.081-.071.155-.127.218s-.125.114-.201.151c-1.298.699-2.694 1.198-4.14 1.48z" fill="#fa9b9b"/><path d="m380.93 466.359c-.047-.137-.123-.263-.223-.368-.101-.106-.222-.188-.358-.241-.135-.053-.28-.076-.425-.068-.145.009-.286.049-.414.117-1.273.662-2.732.874-4.14.6-.699-.119-1.374-.349-2-.68-.114-.066-.239-.11-.37-.128-.13-.018-.263-.01-.39.024-.127.033-.247.092-.352.171-.104.08-.192.18-.258.293-1.32 2.19-3.4 4.65-6.33 5.27-.244.043-.469.159-.645.332-.177.174-.296.397-.343.64s-.018.494.081.721c.1.226.266.417.477.547 3.82 2.32 10.79 4.73 19.05-.73.161-.11.295-.256.389-.428.093-.172.145-.363.15-.559.005-.195-.037-.389-.122-.565-.085-.177-.211-.33-.367-.448-1.578-1.108-2.77-2.681-3.41-4.5z" fill="#21252b"/><path d="m197.13 900.271c-.08-.69-8.82-69.73-28.54-107.12l.51-.26c19.76 37.47 28.51 106.62 28.6 107.31z" fill="#868a91"/><path d="m200.179 875.421c-2.06-38.29 11.39-94 11.52-94.54l.56.14c-.14.56-13.56 56.16-11.51 94.37z" fill="#868a91"/><path d="m137.77 756.68c32.74 2.22 32.88 39.67 32.88 39.67-35.65-6.66-33.01-39.53-32.88-39.67z" fill="#4d61fc"/><path d="m296.59 762.781c-38.7-9.98-47.59 25.52-47.59 25.52 40.24.7 47.59-25.52 47.59-25.52z" fill="#4d61fc"/><path d="m222.241 756.82c-26.77 15.95-15.24 46.18-15.24 46.18 27-16.5 15.38-46.18 15.24-46.18z" fill="#4d61fc"/><path d="m213.651 900.239h-.57c-.145-28.56 5.947-56.808 17.85-82.77 8.83-18.91 17.78-29.25 17.87-29.35l.43.37c-.09.1-9 10.4-17.79 29.24-11.867 25.88-17.938 54.04-17.79 82.51z" fill="#868a91"/><path d="m201.849 900.249c-4.16-72.11-7.37-84.58-13.76-109.42-.65-2.52-1.33-5.16-2.05-8l.56-.13c.71 2.84 1.39 5.48 2 8 6.4 24.89 9.61 37.37 13.78 109.54z" fill="#868a91"/><path d="m221.399 898.871c-4.4-54.21 8.19-92.48 19.52-115 13.26-26.37 29.7-41.3 37.52-44.9l.24.52c-7.75 3.57-24.06 18.39-37.25 44.64-11.3 22.48-23.85 60.64-19.46 114.73z" fill="#868a91"/><path d="m227.51 898.999c-1.51-12.58-1.422-25.301.26-37.86 2.59-18.62 10.37-43.34 32.76-55.36l.27.5c-22.18 11.9-29.89 36.44-32.47 54.92-1.67 12.513-1.758 25.186-.26 37.72z" fill="#868a91"/><path d="m195.76 889.79c0-.12-3.86-11.13-15.58-20.26l.35-.45c11.86 9.24 15.73 20.41 15.77 20.52z" fill="#868a91"/><path d="m191.821 868.271c-.25-.21-24.51-21.5-36.51-25l.16-.541c12.13 3.58 36.48 25.001 36.72 25.161z" fill="#868a91"/><path d="m288.819 795.651c-38.14-8.6-47.71 28-47.71 28 41.33 3.21 47.89-28 47.71-28z" fill="#4d61fc"/><path d="m288.819 795.651c-38.14-8.6-47.71 28-47.71 28 41.33 3.21 47.89-28 47.71-28z" fill="#fff" opacity=".4"/><path d="m263.159 843.781c-34.81-8.6-41.47 17.34-41.47 17.34 29.96 8.6 41.31-17.34 41.47-17.34z" fill="#4d61fc"/><path d="m152.201 798.571c42.58 5 45.77 45.77 45.77 45.77-47.85-5.97-45.77-45.91-45.77-45.77z" fill="#4d61fc"/><path d="m209.34 900.239c-.28-29.07-1.93-178.94-1.94-180.45h.6c0 1.51 1.67 151.38 1.95 180.45z" fill="#868a91"/><path d="m237.779 795.1c0 40.22-36.34 38.28-36.34 38.28 1.11-37.86 36.34-38.28 36.34-38.28z" fill="#4d61fc"/><path d="m237.779 795.1c0 40.22-36.34 38.28-36.34 38.28 1.11-37.86 36.34-38.28 36.34-38.28z" fill="#fff" opacity=".4"/><path d="m125.85 828.391c31.34-7.08 41.19 20.66 41.19 20.66-35.92 2.64-41.04-20.66-41.19-20.66z" fill="#4d61fc"/><path d="m125.85 828.391c31.34-7.08 41.19 20.66 41.19 20.66-35.92 2.64-41.04-20.66-41.19-20.66z" fill="#fff" opacity=".4"/><path d="m181.461 907.589h64.36v-8.05h-64.36z" fill="#868a91"/><path d="m186.18 907.59h55.2l-3.6 52.84h-48z" fill="#868a91"/><path d="m186.18 907.59h55.2l-3.6 52.84h-48z" fill="#868a91"/><path d="m181.6 907.589h4.58l3.61 52.84h11.65l.14-50.62h39.53l.27-2.22h-49.38v-8.05h-10.4z" fill="#61656d"/><path d="m202.82 698.289c23.17 25.79 5.41 52.7 5.41 52.7-20.8-26.49-5.41-52.7-5.41-52.7z" fill="#4d61fc"/><path d="m202.82 698.289c23.17 25.79 5.41 52.7 5.41 52.7-20.8-26.49-5.41-52.7-5.41-52.7z" fill="#fff" opacity=".4"/><path d="m176.61 737.68c34.95 25.66 15.4 67.41 15.4 67.41-39.39-29.69-15.26-67.41-15.4-67.41z" fill="#4d61fc"/><path d="m176.61 737.68c34.95 25.66 15.4 67.41 15.4 67.41-39.39-29.69-15.26-67.41-15.4-67.41z" fill="#fff" opacity=".4"/><path d="m157.75 862.09c24.82-3.88 29.54 14.29 29.54 14.29-25.52 4.16-29.54-14.29-29.54-14.29z" fill="#4d61fc"/><path d="m194.5 845.449c32.18 4.16 26.77 39.39 26.77 39.39-34.4-8.84-26.77-39.39-26.77-39.39z" fill="#4d61fc"/><path d="m194.5 845.449c32.18 4.16 26.77 39.39 26.77 39.39-34.4-8.84-26.77-39.39-26.77-39.39z" fill="#fff" opacity=".4"/><path d="m264.131 750.581c3.75-18.59 23.16-16.65 23.16-16.65-5.54 18.73-23.16 16.51-23.16 16.65z" fill="#4d61fc"/><path d="m264.131 750.581c3.75-18.59 23.16-16.65 23.16-16.65-5.54 18.73-23.16 16.51-23.16 16.65z" fill="#fff" opacity=".3"/><path d="m240.551 784.42c23.58-27.32-.55-52.42-.55-52.42-23.17 25.65.55 52.42.55 52.42z" fill="#4d61fc"/><path d="m240.551 784.42c23.58-27.32-.55-52.42-.55-52.42-23.17 25.65.55 52.42.55 52.42z" fill="#fff" opacity=".4"/><path d="m313.071 645.629c-1.676-.127-3.335-.425-4.95-.89-5.012-1.481-9.487-4.385-12.881-8.359s-5.561-8.848-6.239-14.031l-.93-6.58-13-82.58c-.882-4.982-.707-10.093.515-15.003 1.221-4.91 3.461-9.508 6.575-13.497-5.09 4.026-8.992 9.357-11.29 15.426s-2.906 12.647-1.76 19.034l13 82.58.93 6.58c.676 5.18 2.841 10.052 6.231 14.027 3.39 3.974 7.86 6.879 12.869 8.363 1.615.465 3.274.763 4.95.89l99.63 7.57 2.42-6.22z" fill="#000" opacity=".05"/><path d="m227.441 512.57h-91.56v116.61h91.56z" fill="#e0e0e0"/><path d="m215.22 524.301h-67.12v93.15h67.12z" fill="#fff"/><path d="m133.27 629.149h2.64v-116.61h-2.64z" fill="#c1c1c1"/><path d="m195.84 567.17c.002-2.884-.852-5.704-2.453-8.103-1.6-2.399-3.877-4.269-6.541-5.374s-5.596-1.395-8.425-.834c-2.828.561-5.427 1.949-7.467 3.988s-3.43 4.636-3.993 7.465c-.564 2.828-.276 5.761.828 8.425 1.103 2.665 2.972 4.943 5.369 6.545 2.398 1.603 5.218 2.458 8.102 2.458 3.865 0 7.572-1.535 10.306-4.267s4.271-6.438 4.274-10.303z" fill="#4d61fc"/><path d="m209.65 559.239-14.55-22.55-14.61 22.82z" fill="#000" opacity=".2"/><path d="m180.491 575.119h-25.36v25.35h25.36z" fill="#000" opacity=".2"/><path d="m814.931 962.101-10.74-305.54c-.544-13.301 4.173-26.281 13.13-36.13l147.07-158.53c4.466-4.848 9.955-8.64 16.07-11.1l106.719-42.58c4.91-1.972 10.14-2.99 15.43-3h125.39c6.36.06 12.63 1.526 18.36 4.292s10.78 6.764 14.78 11.708l67.55 81c3.61 4.372 8 8.028 12.96 10.78l68.11 37.42c15 8.24 24.46 24.92 24.46 43.14v368.54z" fill="#f4f4f4"/><path d="m912.449 840v-120.15c.005-.064.023-.127.052-.185.03-.057.07-.108.12-.15.049-.042.106-.074.167-.093.062-.02.127-.027.191-.022.131-.011.262.03.363.114.101.085.165.205.177.336v120.15c-.012.131-.076.252-.177.336s-.232.125-.363.114c-.064.006-.129-.002-.191-.021-.061-.02-.118-.052-.167-.094-.05-.041-.09-.092-.12-.15-.029-.058-.047-.12-.052-.185z" fill="#868a91"/><path d="m1312.59 674.619h-323.51v287.52h323.51z" fill="#f4f4f4"/><path d="m1071.27 708.491v-162.65c0-5.46 3.62-9.87 8.1-9.87h251.76v172.52c0 5.45-3.63 9.87-8.11 9.87h-243.65c-4.48 0-8.1-4.42-8.1-9.87z" fill="#b2b6bb"/><path d="m1312.59 708.491v-162.74c0-1.297.26-2.581.75-3.78.5-1.198 1.23-2.286 2.14-3.203.92-.916 2.01-1.643 3.21-2.139 1.2-.495 2.48-.749 3.78-.748h45.2c1.3-.001 2.58.253 3.78.748 1.2.496 2.29 1.223 3.21 2.139.91.917 1.64 2.005 2.14 3.203.49 1.199.75 2.483.75 3.78v162.74c0 1.297-.26 2.581-.75 3.779-.5 1.198-1.23 2.287-2.14 3.204-.92.916-2.01 1.643-3.21 2.138-1.2.496-2.48.75-3.78.749h-45.2c-1.3.001-2.58-.253-3.78-.749-1.2-.495-2.29-1.222-3.21-2.138-.91-.917-1.64-2.006-2.14-3.204-.49-1.198-.75-2.482-.75-3.779z" fill="#868a91"/><path d="m1041.23 684.499c0-2.62-1.04-5.133-2.89-6.986-1.86-1.853-4.37-2.894-6.99-2.894h-126.099c-1.297 0-2.581.256-3.78.752-1.198.497-2.286 1.225-3.203 2.143-.916.917-1.643 2.006-2.139 3.205-.495 1.199-.749 2.483-.748 3.78v277.55h145.849z" fill="#868a91"/><path d="m927.94 684.499c.001-1.297-.253-2.581-.748-3.78-.496-1.199-1.223-2.288-2.139-3.205-.917-.918-2.005-1.646-3.204-2.143-1.198-.496-2.482-.752-3.779-.752h-45.21c-1.296.001-2.579.258-3.776.755s-2.285 1.226-3.2 2.143c-.916.918-1.642 2.006-2.136 3.204-.495 1.198-.749 2.482-.748 3.778v277.55h65z" fill="#b2b6bb"/><path d="m1246.88 834.689v-65h-318.999v65z" fill="#b2b6bb"/><path d="m1221.39 834.67v-65h-9.18v65z" fill="#000" opacity=".2"/><path d="m927.939 843.77v-116.31c.037-.104.104-.194.194-.257s.197-.098.306-.098c.11 0 .217.035.307.098.089.063.157.153.193.257v116.31c-.036.103-.104.193-.193.256-.09.064-.197.098-.307.098-.109 0-.216-.034-.306-.098-.09-.063-.157-.153-.194-.256z" fill="#868a91"/><path d="m1241.14 509.071c.69.388 1.23 1.011 1.51 1.756.27.745.28 1.565.01 2.314l-.07.19c-4.51 12.143-13.33 22.2-24.78 28.25l-.51.27c-.93.48-1.88.93-2.84 1.35-10.94 4.785-23.17 5.716-34.71 2.64-2.86-.757-5.65-1.761-8.34-3-1.46-.67-2.87-1.39-4.24-2.19-3.41-1.968-6.59-4.316-9.47-7-5.25-4.85-11.08-16.27-13.41-21.09-.12-.243-.18-.511-.18-.781.01-.271.07-.537.2-.777.12-.24.3-.448.52-.606.22-.159.47-.264.74-.306 2.18-.36 5.37-1.16 7.43-2.94 2.94-2.361 5.04-5.603 6-9.25.13-.533.23-1.075.29-1.62v-.05c.06-.883.06-1.768 0-2.65 0-.19 0-.4 0-.59v-.05c-.08-.943-.24-1.877-.49-2.79 0-.17-.08-.29-.09-.34-.26-.62-.49-1.26-.7-1.92-.44-1.448-.75-2.935-.91-4.44-.77-7.79 3.21-11.09 5.38-12.3.37-.222.68-.539.9-.918.21-.379.32-.808.31-1.242-.26-24.43 32.56-32.74 51.09-19.58 11.17 8 14.38 17.5 14.21 26.77-.01.176-.01.353 0 .53-.09 2.334-.04 4.671.13 7l.13-.07c.24 2.787.66 5.556 1.26 8.29 1.11 5 3 10 6.21 13.39l.09.09c1.22 1.464 2.68 2.703 4.33 3.66z" fill="#21252b"/><path d="m968 863.32 19.25 56.18c.493 1.538.484 3.193-.027 4.725s-1.496 2.861-2.813 3.795c-3.88 2.84-8.79 3.23-14.47 5.17l-40.16 13.43c-3.88 1.29.64 8.78.64 8.78.361.482.829.873 1.367 1.142s1.131.409 1.733.408c1.26-.027 2.462-.535 3.36-1.42.13-.13.13-.13.26-.13h.77c.13 0 .26.13.39.26.352.408.788.735 1.278.957.49.223 1.023.337 1.562.333 1.194-.04 2.337-.496 3.23-1.29.09-.082.197-.145.313-.183.116-.039.239-.052.361-.04s.239.05.346.111c.106.061.198.143.27.242.292.327.651.586 1.054.759.403.172.838.255 1.276.241.968-.047 1.906-.358 2.71-.9.195-.135.432-.196.669-.172.236.024.456.131.621.302.567.511 1.307.786 2.07.77.53-.001 1.05-.145 1.504-.418s.826-.664 1.076-1.132h.39l56.18-.9h-2.72c1.6-.019 3.18-.359 4.65-1 2.87-1.2 5.19-3.427 6.5-6.245 1.32-2.818 1.53-6.025.61-8.995l-4.14-13.17-9.81-63.28z" fill="#966363"/><path d="m1021.89 938.35-4.13-13.17-9.82-63.28-39.39 1.55 14 3.35c4.074.999 7.821 3.036 10.875 5.911 3.054 2.876 5.312 6.493 6.555 10.499l11.63 37.84 4.13 13.17c.96 2.955.78 6.165-.52 8.989-1.3 2.825-3.61 5.057-6.48 6.251-1.49.579-3.06.916-4.65 1h2.71l-56.18.91h-.39c-.251.467-.623.858-1.077 1.131-.454.272-.973.417-1.503.419-.782-.021-1.525-.348-2.07-.91-.155-.14-.351-.228-.559-.251-.208-.024-.418.019-.601.121-.801.551-1.739.866-2.71.91-.438.014-.873-.069-1.276-.241-.402-.173-.762-.432-1.054-.759-.073-.098-.166-.18-.272-.24-.107-.059-.225-.096-.346-.108-.122-.011-.245.004-.36.043-.116.039-.222.102-.312.185-.893.794-2.036 1.25-3.23 1.29-.539.004-1.071-.11-1.562-.333-.49-.222-.926-.549-1.278-.957-.13-.13-.26-.26-.39-.26h-.77c-.099.014-.19.059-.26.13-.515.404-1.08.74-1.68 1 .396 1.035.871 2.038 1.42 3 .361.482.829.873 1.367 1.142s1.131.409 1.733.408c1.261-.025 2.463-.533 3.36-1.42.13-.13.13-.13.26-.13h.77c.13 0 .26.13.39.26.352.408.788.735 1.278.957.491.223 1.023.337 1.562.333 1.194-.04 2.337-.496 3.23-1.29.09-.082.197-.145.313-.183.116-.039.239-.052.361-.04s.239.05.346.111c.106.061.198.143.27.242.292.327.652.586 1.054.759.403.172.838.255 1.276.241.968-.047 1.906-.358 2.71-.9.084-.069.181-.121.285-.152.105-.032.214-.042.323-.029.108.012.213.046.308.099.094.054.178.126.244.212.551.551 1.291.873 2.07.9.528-.008 1.045-.155 1.498-.428.453-.272.827-.659 1.082-1.122h.39l56.18-.9h-2.71c1.6-.021 3.18-.361 4.64-1 2.86-1.213 5.16-3.453 6.44-6.277 1.29-2.825 1.48-6.029.52-8.983z" fill="#000" opacity=".15"/><path d="m921.54 954.111c.097-2.712 1.007-5.333 2.612-7.521s3.83-3.843 6.388-4.749l37.07-11.37c.321-.124.665-.178 1.009-.159.343.02.679.112.984.271.306.159.574.381.787.651s.367.583.45.917c1.42 4.65 4.9 14.86 11.88 22h36.93c.35-.022.71.028 1.04.148s.64.307.89.549c.26.242.47.535.61.859.14.325.21.675.21 1.029 0 .353-.07.703-.21 1.028-.14.324-.35.617-.61.859-.25.242-.56.429-.89.549s-.69.171-1.04.149h-95.65c-.685-.003-1.341-.277-1.825-.763-.484-.485-.755-1.142-.755-1.827v-2.58z" fill="#21252b"/><path d="m921.539 954.111c.066-2.146.654-4.242 1.711-6.11 1.058-1.868 2.554-3.45 4.359-4.61-4.65 3.36.91 6.59 7.62 6.33 34.23-1.55 38.62-1.55 42.62-1.94-.049-.052-.086-.113-.109-.181-.022-.067-.03-.139-.021-.209 1.493 2.408 3.225 4.659 5.17 6.72h36.931c.35-.022.71.028 1.04.148s.64.307.89.549c.26.242.47.535.61.859.14.325.21.675.21 1.029 0 .353-.07.703-.21 1.028-.14.324-.35.617-.61.859-.25.242-.56.429-.89.549s-.69.171-1.04.149h-95.701c-.685-.003-1.341-.277-1.825-.763-.483-.485-.755-1.142-.755-1.827z" fill="#000" opacity=".4"/><path d="m921.539 953.33h60.57l.78.78h-61.35z" fill="#000" opacity=".4"/><path d="m1003.94 942.23c1.26.068 2.52-.195 3.66-.761 1.13-.566 2.1-1.417 2.8-2.469.7-1.259 1.03-2.687.96-4.125s-.54-2.828-1.35-4.015c-.07-.119-.16-.223-.27-.303-.12-.08-.24-.134-.38-.159-.13-.025-.27-.019-.41.016-.13.035-.25.098-.36.186-.12.067-.23.16-.31.272s-.13.241-.16.377c-.02.136-.02.275.02.409.03.134.1.257.19.363.62.828.99 1.819 1.06 2.852s-.17 2.063-.67 2.968c-1 1.68-3.1 2.45-5.82 2.19-.14-.023-.28-.017-.41.017-.14.035-.26.097-.37.182-.11.086-.2.193-.26.315-.07.123-.11.257-.12.395-.02.137-.02.277.02.412.03.134.09.26.18.369s.19.199.31.264c.13.066.26.105.4.115.35 0 .77.13 1.29.13z" fill="#000" opacity=".0225"/><path d="m1044.59 863.321 19.25 56.18c.49 1.535.48 3.186-.03 4.714s-1.49 2.854-2.81 3.786c-3.87 2.84-8.78 3.23-14.46 5.17l-40.17 13.43c-3.87 1.29.65 8.78.65 8.78.36.481.83.872 1.37 1.141s1.13.409 1.73.409c1.26-.033 2.46-.541 3.36-1.42.13-.13.13-.13.26-.13h.77c.13 0 .26.13.39.26.35.408.79.735 1.28.958s1.02.336 1.56.332c1.19-.042 2.34-.498 3.23-1.29.09-.083.2-.145.31-.184.12-.038.24-.052.37-.039.12.012.23.05.34.111.11.06.2.143.27.242.29.325.65.583 1.05.756s.83.256 1.27.244c.97-.045 1.91-.357 2.72-.9.2-.135.43-.196.67-.173.24.024.46.131.62.303.34.305.74.53 1.17.658.44.128.9.156 1.35.081.44-.075.87-.251 1.24-.514s.67-.607.89-1.005h.39l56.17-.9h-2.71c1.6-.02 3.18-.36 4.65-1 5.94-2.32 8.91-9 7.11-15.24l-4.14-13.17-9.81-63.28z" fill="#966363"/><path d="m1098.45 938.35-4.14-13.17-9.81-63.28-39.39 1.55 14 3.35c4.07.999 7.82 3.036 10.88 5.911 3.05 2.876 5.31 6.493 6.55 10.499l11.63 37.84 4.13 13.17c.96 2.955.77 6.164-.52 8.988-1.3 2.823-3.61 5.056-6.48 6.252-1.48.579-3.05.917-4.64 1h2.71l-56.18.91h-.39c-.26.463-.63.85-1.08 1.122s-.97.42-1.5.428c-.78-.021-1.52-.348-2.07-.91-.16-.14-.35-.228-.56-.251-.21-.024-.42.019-.6.121-.8.549-1.74.865-2.71.91-.44.014-.87-.069-1.28-.241-.4-.173-.76-.432-1.05-.759-.07-.098-.17-.18-.27-.24-.11-.059-.23-.096-.35-.108-.12-.011-.24.004-.36.043-.11.039-.22.102-.31.185-.89.793-2.04 1.249-3.23 1.29-.54.004-1.07-.11-1.56-.333-.49-.222-.93-.549-1.28-.957-.13-.13-.26-.26-.39-.26h-.77c-.1.014-.19.059-.26.13-.51.404-1.08.74-1.68 1 .4 1.035.87 2.038 1.42 3 .36.482.83.873 1.37 1.142s1.13.409 1.73.408c1.26-.033 2.46-.54 3.36-1.42.13-.13.13-.13.26-.13h.77c.13 0 .26.13.39.26.35.408.79.735 1.28.957.49.223 1.02.337 1.56.333 1.19-.04 2.34-.496 3.23-1.29.09-.082.2-.145.31-.183.12-.039.24-.052.36-.04.13.012.24.05.35.111s.2.143.27.242c.29.327.65.586 1.05.759.41.172.84.255 1.28.241.97-.047 1.91-.358 2.71-.9.08-.069.18-.121.29-.152.1-.032.21-.042.32-.029.11.012.21.046.31.099.09.054.17.126.24.212.55.551 1.29.873 2.07.9.53-.008 1.05-.155 1.5-.428.45-.272.82-.659 1.08-1.122h.39l56.18-.9h-2.72c1.6-.019 3.18-.359 4.65-1 2.85-1.219 5.15-3.46 6.43-6.283 1.29-2.823 1.47-6.024.52-8.977z" fill="#000" opacity=".15"/><path d="m998.1 954.11c.094-2.712 1.003-5.334 2.61-7.522 1.6-2.189 3.83-3.843 6.39-4.748l37.07-11.37c.32-.123.66-.177 1.01-.158.34.02.67.112.98.271.3.159.57.381.78.651.22.27.37.583.45.916 1.42 4.65 4.91 14.86 11.89 22h36.93c.35-.022.71.029 1.04.149s.64.307.89.549c.26.242.47.535.61.859.14.325.21.675.21 1.028 0 .354-.07.704-.21 1.029-.14.324-.35.617-.61.859-.25.242-.56.429-.89.549s-.69.17-1.04.148h-95.7c-.685-.002-1.342-.276-1.825-.762-.484-.485-.755-1.142-.755-1.828v-2.58z" fill="#21252b"/><path d="m998.1 954.111c.066-2.146.653-4.242 1.711-6.11 1.059-1.868 2.549-3.45 4.359-4.61-4.65 3.36.9 6.59 7.62 6.33 34.22-1.55 38.61-1.55 42.62-1.94-.05-.052-.09-.113-.11-.181-.02-.067-.03-.139-.02-.209 1.49 2.405 3.22 4.657 5.16 6.72h36.94c.66.041 1.27.331 1.73.811.45.48.7 1.115.7 1.774s-.25 1.293-.7 1.773c-.46.481-1.07.771-1.73.812h-95.7c-.686-.003-1.342-.277-1.825-.763-.484-.485-.755-1.142-.755-1.827z" fill="#000" opacity=".4"/><path d="m998.1 953.33h60.57l.77.78h-61.34z" fill="#000" opacity=".4"/><path d="m1080.5 942.23c1.27.078 2.54-.18 3.68-.747 1.14-.566 2.11-1.423 2.82-2.483.7-1.258 1.03-2.686.96-4.123-.06-1.438-.53-2.828-1.34-4.017-.07-.119-.16-.223-.27-.303-.12-.08-.24-.134-.38-.159s-.27-.019-.41.016c-.13.035-.25.098-.36.186-.12.067-.23.16-.31.272s-.13.241-.16.377c-.02.136-.02.275.02.409.03.134.1.257.19.363.62.828.99 1.82 1.05 2.853.07 1.033-.16 2.064-.67 2.967-1 1.68-3.09 2.45-5.81 2.19-.14-.023-.28-.017-.41.017-.14.035-.26.097-.37.182-.11.086-.2.193-.27.315-.06.123-.1.257-.11.395-.02.137-.02.276.02.409.03.134.09.259.18.368.08.109.19.199.31.265s.25.107.39.118c.34 0 .75.13 1.25.13z" fill="#000" opacity=".0225"/><path d="m1176.52 704.849v33.82c0 8.241-3.27 16.143-9.1 21.97s-13.73 9.1-21.97 9.1h-151.2c13.92 30.22 16.48 76.07 24.17 127.17 0 .25.07.5.11.74h-43.06l-48.8-151.43c-1.583-4.872-1.985-10.051-1.174-15.11s2.813-9.852 5.841-13.985c3.027-4.134 6.994-7.488 11.572-9.787 4.579-2.299 9.638-3.478 14.761-3.438z" fill="#4d61fc"/><path d="m1133.88 727v-23.1h-114.44c-4.47.001-8.86 1.221-12.69 3.53-3.83 2.308-6.953 5.617-9.041 9.57-1.612 3.03-4.02 5.562-6.964 7.324-2.945 1.762-6.314 2.687-9.746 2.676h-13.67c-1.828.001-3.631.431-5.263 1.255s-3.048 2.019-4.134 3.489c-1.086 1.471-1.813 3.175-2.12 4.977-.308 1.802-.189 3.652.347 5.399l47.711 155.51h13.25l1.3-.74c-7.69-51.1-10.25-96.95-24.171-127.17h151.201c4.08 0 8.12-.803 11.89-2.365 3.77-1.561 7.19-3.85 10.08-6.735 2.88-2.885 5.17-6.31 6.73-10.08 1.57-3.769 2.37-7.809 2.37-11.89v-11.65z" fill="#000" opacity=".2"/><path d="m1252.29 704.851v33.82c0 8.238-3.27 16.14-9.1 21.966-5.82 5.827-13.72 9.101-21.96 9.104h-151.23c14 30.37 16.5 76.52 24.28 127.91h-43.07l-48.8-151.43c-1.57-4.873-1.97-10.048-1.15-15.102s2.82-9.843 5.84-13.973c3.03-4.13 6.99-7.484 11.56-9.786 4.58-2.303 9.63-3.488 14.75-3.459z" fill="#4d61fc"/><path d="m1252.29 727v11.65c0 8.239-3.27 16.14-9.1 21.966-5.82 5.827-13.72 9.101-21.96 9.104h-151.23c14 30.37 16.5 76.52 24.28 127.91h-13.77l-45.61-150.39c-.71-2.342-.87-4.819-.45-7.231s1.4-4.693 2.85-6.659c1.46-1.966 3.36-3.563 5.55-4.662 2.19-1.1 4.6-1.671 7.05-1.668z" fill="#000" opacity=".2"/><path d="m1287 592.71-12.7 81.29c-.17 1.3-10 17.58-22.69 30.23h-157.28l37.42-127.92c1.6-6.271 5.14-11.874 10.13-16 3.56-2.934 7.73-5.032 12.21-6.14l20.18-4.85 58.72 1.91 31 7.36c7.42 1.759 13.91 6.245 18.17 12.567 4.26 6.321 5.99 14.016 4.84 21.553z" fill="#21252b"/><path d="m1142.14 691 .17-.17.09.08z" fill="#000" opacity=".2"/><path d="m1142.31 582.231-22 69.46-.09 15.94 7.31 37.67 17.81-66.69c.29-1.585-.02-3.221-.87-4.59l-4.07-6.75c-4.59-8.14-5.54-16.37-3-24.69l6.33-20.09c.27-.86-1.16-1.12-1.42-.26z" fill="#000" opacity=".5"/><path d="m1181.29 500.91-1.47 44.43c-.03.789-.32 1.545-.82 2.153-.51.609-1.19 1.036-1.96 1.217l-2.85.7-1.19 18.33c-.11 1.544.1 3.094.59 4.56.5 1.466 1.28 2.818 2.31 3.98 1.02 1.162 2.26 2.11 3.65 2.79s2.9 1.077 4.45 1.17l14.93.86c3.2.183 6.41-.415 9.33-1.742s5.48-3.344 7.45-5.878l17.22-22.17-12.65-2.77c-.76-.176-1.43-.591-1.93-1.184s-.8-1.332-.84-2.106l-2.25-40.36z" fill="#966363"/><path d="m1167 512.249-1-30.4c-.05-1.331.16-2.659.63-3.908.46-1.249 1.17-2.393 2.08-3.367.91-.975 2-1.759 3.21-2.309 1.22-.55 2.53-.854 3.86-.896l30.58-1c1.02-.033 2.04.136 2.99.496.96.361 1.83.907 2.57 1.607.75.7 1.35 1.539 1.76 2.471.42.931.65 1.936.68 2.956l1.13 32.74c.21 6.181-2.04 12.195-6.25 16.719-4.22 4.524-10.06 7.19-16.24 7.411l-1.82.09c-3.07.11-6.14-.389-9.02-1.467s-5.52-2.714-7.77-4.815c-2.24-2.101-4.05-4.625-5.32-7.427-1.27-2.801-1.97-5.826-2.07-8.901z" fill="#966363"/><path d="m1194.37 502.001c0-.499-.14-.987-.42-1.403s-.67-.74-1.13-.933c-.46-.192-.97-.243-1.46-.147-.48.096-.93.335-1.29.687-.35.352-.59.801-.69 1.29s-.05.997.14 1.458.51.855.93 1.132c.41.278.9.426 1.4.426.67 0 1.31-.264 1.78-.735.47-.47.74-1.109.74-1.775z" fill="#21252b"/><path d="m1191.42 503.161c0-.103-.03-.204-.09-.289-.05-.086-.14-.152-.23-.192-.1-.039-.2-.049-.3-.029s-.19.069-.27.142c-.07.073-.12.165-.14.266s-.01.206.03.301.11.176.19.233c.09.057.19.088.29.088.14 0 .27-.055.37-.153.1-.097.15-.229.15-.367z" fill="#fff"/><path d="m1174.88 503.85c0-.497-.15-.982-.42-1.395-.28-.412-.67-.734-1.13-.924s-.96-.24-1.45-.143-.93.336-1.29.687c-.35.351-.59.798-.68 1.285-.1.487-.05.992.14 1.45.19.459.51.851.92 1.127.42.276.9.423 1.4.423.67 0 1.3-.265 1.77-.735.48-.471.74-1.109.74-1.775z" fill="#21252b"/><path d="m1171.76 504.889c0-.103-.03-.203-.09-.289-.05-.085-.14-.152-.23-.191-.1-.04-.2-.05-.3-.03s-.19.07-.27.142c-.07.073-.12.166-.14.267s-.01.205.03.3.11.176.19.233c.09.058.19.088.29.088.14 0 .27-.055.37-.152.1-.098.15-.23.15-.368z" fill="#fff"/><path d="m1229.15 483.68-1 .52c-.66 3.378-1.52 6.716-2.55 10-.92 3-1.83 5.76-2.47 8.18-.33 1.31-2.23-1.46-4-3.89-.33-.45-.66-.88-1-1.27-.48-.705-1.09-1.306-1.81-1.77-.11 0-.43.37-.84 1l-.08.12c-.11.16-.22.32-.33.5-.48.74-1 1.61-1.44 2.31-.13.221-.32.403-.54.526-.23.123-.48.184-.74.174-.26-.009-.51-.087-.72-.226-.22-.139-.4-.334-.51-.564-1.56-4.012-2.44-8.258-2.59-12.56l-.18-3.89c-6.47-.4-10.27-5-11.74-7.2-.27-.384-.51-.785-.73-1.2l-.09.1c-7.64 9.85-21.66 9.93-27.44 9.5-.46-.04-.91.059-1.31.284-.4.224-.72.565-.92.976-.16.336-.23.709-.2 1.08l.28 7.84v1.38l.19 5.42c-1.15-1.042-2.21-2.176-3.18-3.39-.27-.33-.55-.68-.83-1.06l-.67-.93-2.66 2.22-.08.07c.13-.533.23-1.074.29-1.62v-.05c.06-.882.06-1.768 0-2.65 0-.19 0-.4 0-.59v-.05c0-.969-.15-1.931-.46-2.85-.05-.091-.09-.184-.12-.28-.26-.62-.49-1.26-.7-1.92-.44-1.448-.75-2.935-.91-4.44-.77-7.79 3.21-11.09 5.38-12.3.37-.222.68-.538.9-.918.21-.379.32-.807.31-1.242-.26-24.43 32.56-32.74 51.09-19.58 11.17 8 14.38 17.5 14.21 26.77-.01.176-.01.353 0 .53-.07 2.315 0 4.632.19 6.94z" fill="#21252b"/><path d="m1212.64 512.079 1.56-12.08c2-11.08 15.67-8.92 13.25 2.08s-13.6 10.05-13.6 10.05z" fill="#966363"/><path d="m1224.24 497.271c-.05.077-.12.144-.2.194-.08.051-.17.085-.26.101-.1.016-.19.013-.28-.009-.1-.021-.18-.061-.26-.116-.3-.273-.66-.476-1.05-.595s-.81-.152-1.21-.095c-.38.108-.72.295-1.02.549-.3.253-.54.567-.71.921-.59 1.095-.93 2.307-1 3.55l-.08 1.3c0 1-1.56.7-1.48-.17l.09-1.21c.05-1.532.5-3.025 1.3-4.33.26-.539.63-1.013 1.09-1.389.47-.375 1.01-.642 1.59-.781.6-.077 1.21-.032 1.79.131s1.12.442 1.59.819c.13.156.21.348.23.549.01.202-.03.405-.13.581z" fill="#000" opacity=".3"/><path d="m1192.72 491.381c-1.89.003-3.74.531-5.34 1.525-1.61.995-2.91 2.416-3.75 4.105-2.06-.607-4.28-.455-6.24.43-.94-1.189-2.14-2.149-3.5-2.808-1.37-.658-2.86-.997-4.38-.992-1.06-.002-2.12.163-3.13.49l-.23.07c-1.97.695-3.68 1.983-4.89 3.687-1.2 1.704-1.85 3.74-1.86 5.829 0 2.089.64 4.128 1.84 5.837 1.21 1.708 2.91 3.002 4.88 3.704 1.96.701 4.1.777 6.11.215s3.8-1.734 5.12-3.354c1.32-1.619 2.11-3.608 2.25-5.692s-.36-4.161-1.45-5.946c1.59-.643 3.34-.762 5-.34-.36.932-.57 1.919-.6 2.92v.45c.01 2.516.96 4.937 2.65 6.795 1.7 1.857 4.03 3.018 6.53 3.256s5.01-.463 7.02-1.968c2.02-1.504 3.41-3.705 3.89-6.173.12-.63.18-1.269.18-1.91 0-2.681-1.07-5.251-2.96-7.15-1.89-1.898-4.46-2.97-7.14-2.98zm-14.38 12.39c-.01 2.339-.94 4.581-2.6 6.235-1.65 1.654-3.89 2.587-6.23 2.595-.85-.002-1.69-.123-2.51-.36-1.46-.43-2.78-1.231-3.84-2.325s-1.82-2.443-2.2-3.917c-.38-1.473-.37-3.02.02-4.49s1.16-2.813 2.23-3.898c.85-.862 1.87-1.543 3-2l.22-.08c1.34-.507 2.77-.68 4.19-.506s2.77.69 3.95 1.504c1.17.814 2.13 1.901 2.79 3.168s1 2.676.99 4.104zm14.38 6.58c-2.34-.011-4.58-.946-6.24-2.602-1.65-1.655-2.58-3.898-2.59-6.238-.01-.097-.01-.194 0-.29.1-2.295 1.1-4.458 2.77-6.031 1.68-1.573 3.9-2.431 6.2-2.394 2.29.038 4.48.969 6.1 2.596 1.63 1.627 2.55 3.822 2.58 6.119 0 .588-.06 1.174-.18 1.75-.41 1.994-1.49 3.788-3.06 5.079s-3.54 2.001-5.58 2.011z" fill="#fff"/><path d="m1219.13 508.18c0-.445-.13-.88-.38-1.25s-.6-.659-1.01-.829-.86-.215-1.3-.128c-.43.087-.84.301-1.15.616-.31.314-.53.715-.62 1.152-.08.436-.04.889.13 1.3s.46.762.83 1.01c.37.247.81.379 1.25.379.6 0 1.17-.237 1.59-.659s.66-.995.66-1.591z" fill="#4d61fc"/><path d="m1215.58 509.999c.38.27.83.419 1.3.43.3.003.59-.053.86-.165.28-.113.53-.278.74-.488.21-.209.37-.458.48-.732.12-.275.17-.568.17-.865 0-.363-.09-.721-.26-1.039-.18-.318-.43-.587-.74-.781.2.408.32.849.35 1.3 0 .32-.06.636-.18.93-.13.295-.31.563-.53.789-.23.225-.5.404-.79.526-.29.123-.61.185-.93.185-.16.006-.32-.025-.47-.09z" fill="#000" opacity=".15"/><path d="m1227.62 698.109-40.18 3.901c-4.51.61-8.84 1.3-13.08-.17l-5.2-1.82c-.63-.226-1.31-.312-1.98-.254-.67.059-1.32.261-1.91.593l-12.13 7c-.3.176-.65.268-1 .268s-.7-.092-1-.268c-.29-.146-.55-.362-.74-.629s-.31-.576-.35-.901 0-.655.11-.962c.12-.307.3-.581.55-.797l8.66-8.23-12.73 12.16c-.27.285-.62.491-1 .597-.38.105-.78.106-1.16.002-.38-.1-.72-.292-1-.559-.28-.268-.5-.602-.62-.971-.12-.37-.14-.764-.07-1.147.07-.382.24-.741.48-1.042l8.83-11.17-11.6 14.63c-.28.382-.68.669-1.12.824-.45.156-.94.171-1.4.046-1.64-.35-1.38-2-.43-3.47l8.4-12.641-15.07 12.471c-1 1-1.82 1.47-2.86.52s-.69-2.16.18-3.2l12.47-12.39c1.9-2.16 3.2-2.94 5.89-3.12l25.55-.86 47.11-11z" fill="#966363"/><path d="m1165.27 700.279c.58-.333 1.24-.537 1.91-.598.67-.06 1.34.024 1.98.248l5.2 1.82c4.24 1.39 8.66.78 13.08.17l26-2.51-7.1-21.22-.26 16.63-26.96 4.18c-4.5.6-8.83 1.3-13.08-.17z" fill="#000" opacity=".15"/><path d="m1150.54 704.43c-.04-.039-.07-.085-.09-.137-.02-.051-.04-.107-.04-.163 0-.055.02-.111.04-.162.02-.052.05-.098.09-.138l8-7.54c.08-.08.19-.126.31-.126.11 0 .22.046.3.126.08.081.13.191.13.305 0 .115-.05.225-.13.305l-8 7.53c-.09 0-.18.09-.26.09s-.26-.09-.35-.09z" fill="#000" opacity=".15"/><path d="m1143 705.21c-.05-.032-.09-.074-.12-.122-.02-.049-.04-.102-.05-.159-.01-.056-.01-.113.01-.168.01-.054.04-.106.07-.151l8.31-10.48c.18-.17.44-.26.61-.09s.26.43.09.61l-8.32 10.48c-.08.08-.17.17-.26.17s-.25-.09-.34-.09z" fill="#000" opacity=".15"/><path d="m1166.56 698.81 2.69 1.12c-.64-.225-1.31-.309-1.99-.249-.67.061-1.32.265-1.91.599l-12.12 7c-.3.175-.65.268-1 .268s-.7-.093-1-.268c-.35-.212-.63-.522-.81-.892-.18-.369-.24-.782-.19-1.188.08.09 1 1.74 3.2.09 1.56-1.12 6.24-4.24 8.92-6.06.63-.381 1.33-.616 2.06-.688.73-.073 1.46.019 2.15.268z" fill="#000" opacity=".15"/><path d="m1213.51 699.41 42.61-3.81c11.34-1.47 16.45-11.17 18.27-22.6l-35.86-2.6-32.21 7.79z" fill="#21252b"/><path d="m1211.43 693.52 2 6 42.61-3.81c11-1.39 16.11-10.57 18.1-21.48v-.09l12.65-81.24c1.15-7.536-.58-15.228-4.84-21.549s-10.74-10.808-18.16-12.571l-3.46-.86c6.44 2.637 11.82 7.347 15.29 13.385 3.47 6.039 4.82 13.06 3.85 19.955l-12.64 81.24c-2.78 8.31-7.19 16.28-16.55 17.49z" fill="#000" opacity=".15"/><path d="m1193.24 680.88c-.01.089.01.178.04.26.04.082.09.155.15.213.07.059.15.1.24.122.08.022.17.024.26.005l44.69-11 11.87-79.5c0-.167-.06-.329-.17-.458-.1-.128-.25-.215-.42-.246-.16-.031-.33-.003-.48.078-.14.081-.26.21-.32.366l-22.17 81-33.17 8.48c-.08-.004-.17.012-.24.048-.08.035-.15.089-.2.156-.05.066-.08.145-.1.228-.01.083-.01.168.02.248z" fill="#000" opacity=".5"/><path d="m1216.1 519.53-3.72-7.45h3.12z" fill="#000" opacity=".15"/><path d="m1180 540.309c1.66.23 3.33.29 5 .18 4.25-.291 8.27-1.999 11.43-4.85 3.59-.622 7-2.01 10-4.07.07-.042.13-.1.18-.168s.09-.145.1-.227c.02-.082.02-.167 0-.248-.02-.082-.05-.159-.1-.227-.04-.072-.1-.135-.17-.184-.07-.048-.14-.082-.23-.098-.08-.016-.16-.014-.25.005-.08.019-.15.056-.22.107-2.33 1.567-4.91 2.736-7.62 3.46-.17.09-.43.09-.61.17-.51.159-1.03.276-1.56.35h-.26c-.34.09-.69.09-1 .17-.89.105-1.78.165-2.68.18-4.02.235-8.04-.539-11.69-2.25z" fill="#000" opacity=".35"/><path d="m1154 649.1-.5-.5c.31-.298.55-.656.72-1.051s.26-.82.26-1.249-.09-.854-.26-1.249-.41-.753-.72-1.051l.5-.5c.3.308.66.554 1.05.721.4.168.82.254 1.25.254s.85-.086 1.25-.254c.39-.167.75-.413 1.05-.721l.5.5c-.31.298-.55.656-.72 1.051s-.26.82-.26 1.249.09.854.26 1.249.41.753.72 1.051l-.5.5c-.3-.308-.66-.554-1.05-.721-.4-.168-.82-.254-1.25-.254s-.85.086-1.25.254c-.39.167-.75.413-1.05.721z" fill="#4d61fc"/><path d="m1162.93 584.26-.5-.5c.31-.298.55-.656.72-1.051s.25-.82.25-1.249-.08-.854-.25-1.249-.41-.752-.72-1.051l.5-.5c.3.309.66.554 1.05.721.4.168.82.254 1.25.254s.85-.086 1.25-.254c.39-.167.75-.412 1.05-.721l.5.5c-.31.299-.55.656-.72 1.051s-.26.82-.26 1.249.09.854.26 1.249.41.753.72 1.051l-.5.5c-.3-.308-.66-.554-1.05-.721-.4-.168-.82-.254-1.25-.254s-.85.086-1.25.254c-.39.167-.75.413-1.05.721z" fill="#4d61fc"/><path d="m1142.14 565.171-.5.5c-.3-.309-.66-.554-1.05-.722-.4-.167-.82-.254-1.25-.254s-.85.087-1.25.254c-.39.168-.75.413-1.05.722l-.14-.14c1.45-1.933 3.13-3.686 5-5.22l.26.26c-.31.297-.56.653-.73 1.047-.16.395-.25.819-.25 1.248-.01.43.08.855.24 1.251.17.395.41.754.72 1.054z" fill="#4d61fc"/><path d="m1235.25 563.5-.5-.5c.31-.298.55-.655.72-1.051.17-.395.26-.819.26-1.249 0-.429-.09-.854-.26-1.249s-.41-.752-.72-1.051l.5-.5c.3.309.66.554 1.05.722.4.167.82.253 1.25.253s.85-.086 1.25-.253c.39-.168.75-.413 1.05-.722l.5.5c-.31.299-.55.656-.72 1.051s-.26.82-.26 1.249c0 .43.09.854.26 1.249.17.396.41.753.72 1.051l-.5.5c-.3-.308-.66-.553-1.05-.721-.4-.167-.82-.254-1.25-.254s-.85.087-1.25.254c-.39.168-.75.413-1.05.721z" fill="#4d61fc"/><path d="m1267.33 584.5-.5-.5c.31-.298.55-.655.72-1.051.17-.395.26-.819.26-1.249 0-.429-.09-.854-.26-1.249s-.41-.752-.72-1.051l.5-.5c.3.309.66.554 1.05.722.4.167.82.253 1.25.253s.85-.086 1.25-.253c.39-.168.75-.413 1.05-.722l.5.5c-.31.299-.55.656-.72 1.051s-.26.82-.26 1.249c0 .43.09.854.26 1.249.17.396.41.753.72 1.051l-.5.5c-.3-.308-.66-.553-1.05-.721-.4-.167-.82-.254-1.25-.254s-.85.087-1.25.254c-.39.168-.75.413-1.05.721z" fill="#4d61fc"/><path d="m1247 682.709-.5-.5c.31-.298.55-.655.72-1.05.17-.396.26-.82.26-1.25 0-.429-.09-.854-.26-1.249s-.41-.752-.72-1.051l.5-.5c.3.309.66.554 1.05.722.4.167.82.254 1.25.254s.85-.087 1.25-.254c.39-.168.75-.413 1.05-.722l.5.5c-.31.299-.55.656-.72 1.051s-.26.82-.26 1.249c0 .43.09.854.26 1.25.17.395.41.752.72 1.05l-.5.5c-.3-.308-.66-.553-1.05-.721-.4-.167-.82-.254-1.25-.254s-.85.087-1.25.254c-.39.168-.75.413-1.05.721z" fill="#4d61fc"/><path d="m1179.13 624.26-.5-.5c.31-.298.55-.656.72-1.051s.26-.82.26-1.249-.09-.854-.26-1.249-.41-.752-.72-1.051l.5-.5c.3.309.66.554 1.05.721.4.168.82.254 1.25.254s.85-.086 1.25-.254c.4-.167.75-.412 1.05-.721l.5.5c-.31.299-.55.656-.72 1.051s-.25.82-.25 1.249.08.854.25 1.249.41.753.72 1.051l-.5.5c-.3-.308-.65-.554-1.05-.721-.4-.168-.82-.254-1.25-.254s-.85.086-1.25.254c-.39.167-.75.413-1.05.721z" fill="#4d61fc"/><path d="m1158.5 685.51-.5-.5c.31-.298.55-.656.72-1.051s.26-.82.26-1.249-.09-.854-.26-1.249-.41-.752-.72-1.051l.5-.5c.3.309.66.554 1.05.721.4.168.82.254 1.25.254s.85-.086 1.25-.254c.39-.167.75-.412 1.05-.721l.5.5c-.31.299-.55.656-.72 1.051s-.26.82-.26 1.249.09.854.26 1.249.41.753.72 1.051l-.5.5c-.3-.308-.66-.554-1.05-.721-.4-.168-.82-.254-1.25-.254s-.85.086-1.25.254c-.39.167-.75.413-1.05.721z" fill="#4d61fc"/><path d="m1219.09 606.661-.5-.5c.31-.299.55-.656.72-1.051.17-.396.26-.82.26-1.249 0-.43-.09-.854-.26-1.25-.17-.395-.41-.752-.72-1.05l.5-.5c.3.308.66.553 1.05.721.4.167.82.254 1.25.254s.85-.087 1.25-.254c.39-.168.75-.413 1.05-.721l.5.5c-.31.298-.55.655-.72 1.05-.17.396-.26.82-.26 1.25 0 .429.09.853.26 1.249.17.395.41.752.72 1.051l-.5.5c-.3-.309-.66-.554-1.05-.722-.4-.167-.82-.254-1.25-.254s-.85.087-1.25.254c-.39.168-.75.413-1.05.722z" fill="#4d61fc"/><path d="m1198.9 660.661-.5-.5c.31-.299.55-.656.72-1.051.17-.396.26-.82.26-1.249 0-.43-.09-.854-.26-1.25-.17-.395-.41-.752-.72-1.05l.5-.5c.3.308.66.553 1.05.721.4.167.82.254 1.25.254s.85-.087 1.25-.254c.39-.168.75-.413 1.05-.721l.5.5c-.31.298-.55.655-.72 1.05-.17.396-.25.82-.25 1.25 0 .429.08.853.25 1.249.17.395.41.752.72 1.051l-.5.5c-.3-.309-.66-.554-1.05-.722-.4-.167-.82-.254-1.25-.254s-.85.087-1.25.254c-.39.168-.75.413-1.05.722z" fill="#4d61fc"/><path d="m1230.61 647.25-.5-.5c.31-.298.55-.655.72-1.051.17-.395.25-.819.25-1.249 0-.429-.08-.854-.25-1.249s-.41-.752-.72-1.051l.5-.5c.3.309.66.554 1.05.722.4.167.82.253 1.25.253s.85-.086 1.25-.253c.39-.168.75-.413 1.05-.722l.5.5c-.31.299-.55.656-.72 1.051s-.26.82-.26 1.249c0 .43.09.854.26 1.249.17.396.41.753.72 1.051l-.5.5c-.3-.308-.66-.553-1.05-.721-.4-.167-.82-.254-1.25-.254s-.85.087-1.25.254c-.39.168-.75.413-1.05.721z" fill="#4d61fc"/><path d="m1260.72 622.61-.5-.5c.31-.299.55-.656.72-1.051s.26-.82.26-1.249-.09-.854-.26-1.249-.41-.753-.72-1.051l.5-.5c.3.308.66.553 1.05.721.4.168.82.254 1.25.254s.85-.086 1.25-.254c.39-.168.75-.413 1.05-.721l.5.5c-.31.298-.55.656-.72 1.051s-.25.82-.25 1.249.08.854.25 1.249.41.752.72 1.051l-.5.5c-.3-.309-.66-.554-1.05-.722-.4-.167-.82-.253-1.25-.253s-.85.086-1.25.253c-.39.168-.75.413-1.05.722z" fill="#4d61fc"/><path d="m1125.93 612.26-.5-.5c.31-.298.55-.656.72-1.051s.25-.82.25-1.249-.08-.854-.25-1.249-.41-.752-.72-1.051l.5-.5c.3.309.66.554 1.05.721.4.168.82.254 1.25.254s.85-.086 1.25-.254c.39-.167.75-.412 1.05-.721l.5.5c-.31.299-.55.656-.72 1.051s-.26.82-.26 1.249.09.854.26 1.249.41.753.72 1.051l-.5.5c-.3-.308-.66-.554-1.05-.721-.4-.168-.82-.254-1.25-.254s-.85.086-1.25.254c-.39.167-.75.413-1.05.721z" fill="#4d61fc"/><path d="m1114.07 679.911-.5-.5c.31-.299.55-.656.72-1.051.17-.396.26-.82.26-1.249 0-.43-.09-.854-.26-1.25-.17-.395-.41-.752-.72-1.05l.5-.5c.3.308.66.553 1.05.721.4.167.82.254 1.25.254s.85-.087 1.25-.254c.39-.168.75-.413 1.05-.721l.5.5c-.31.298-.55.655-.72 1.05-.17.396-.25.82-.25 1.25 0 .429.08.853.25 1.249.17.395.41.752.72 1.051l-.5.5c-.3-.309-.66-.554-1.05-.722-.4-.167-.82-.254-1.25-.254s-.85.087-1.25.254c-.39.168-.75.413-1.05.722z" fill="#4d61fc"/><path d="m1184.06 707.29v2.17c-.01.342-.15.666-.39.908s-.57.382-.91.392h-85.39c-.34-.008-.67-.147-.91-.389s-.38-.569-.39-.911v-2.17c.01-.341.15-.667.39-.907.24-.241.57-.378.91-.383h85.39c.34.023.65.166.89.403s.38.552.41.887z" fill="#3a3b3f"/><path d="m1129 701.751-18.79-98.82c-.16-.828-.6-1.575-1.25-2.112-.65-.536-1.47-.83-2.31-.829h-22.45c-.53-.006-1.05.105-1.53.326-.49.221-.91.547-1.25.952-.34.406-.59.883-.72 1.395s-.15 1.048-.05 1.567l18.8 98.82c.14.839.58 1.599 1.23 2.148s1.47.851 2.32.852h22.43c.53.004 1.06-.11 1.55-.336.48-.225.91-.556 1.25-.967.35-.412.59-.894.72-1.412.14-.518.15-1.06.05-1.584z" fill="#3a3b3f"/><path d="m1126.38 707.29v2.17c-.01.342-.15.666-.39.908s-.57.382-.91.392h-148.88c-.341-.01-.666-.15-.908-.392-.241-.242-.382-.566-.392-.908v-2.17c.011-.341.151-.664.393-.904s.567-.378.907-.386h148.88c.34.008.67.146.91.386s.38.563.39.904z" fill="#595c63"/><path d="m1125.77 701.751-18.77-98.82c-.16-.827-.6-1.572-1.25-2.109-.64-.536-1.46-.83-2.3-.832h-144.001c-.529-.006-1.053.105-1.534.326s-.907.547-1.246.952c-.34.406-.585.883-.718 1.395-.134.512-.151 1.048-.052 1.567l18.79 98.82c.148.839.585 1.598 1.236 2.146.651.549 1.474.851 2.324.854h144.001c.53-.001 1.05-.12 1.53-.349.48-.228.91-.559 1.24-.97.34-.411.58-.891.71-1.407.13-.515.14-1.052.04-1.573z" fill="#595c63"/><path d="m1048 656.18c-3.87 0-4.88-4.41-3.06-6.75-3.09-3-7.26-4.08-9.82-2.27-2.85 2-2.62 6.79.52 10.67s8 5.39 10.83 3.38c.76-.583 1.35-1.364 1.7-2.257.36-.893.46-1.866.3-2.813-.17.01-.3.04-.47.04z" fill="#7b7e84"/><path d="m1021.1 894.449h-48.991v6.84h48.991z" fill="#21252b"/><path d="m1021.1 901.279h-16.11l-2.07-6.83h18.18z" fill="#000" opacity=".15"/><path d="m1097.66 894.449h-48.99v6.84h48.99z" fill="#21252b"/><path d="m1097.65 901.279h-16.11l-2.06-6.83h18.17z" fill="#000" opacity=".15"/><path d="m1158.73 489.77c-.26-.62-.49-1.26-.7-1.92.28.622.51 1.264.7 1.92z" fill="#21252b"/><path d="m1159.26 496.24c.06-.882.06-1.768 0-2.65 0-.19 0-.4 0-.59 0 .43.06.88.06 1.33.02.637 0 1.275-.06 1.91z" fill="#21252b"/><path d="m1230.54 491.899c-.76-2.681-1.23-5.437-1.39-8.22l.13-.07c.24 2.788.66 5.557 1.26 8.29z" fill="#21252b"/><path d="m1159.26 496.289c-.04.521-.11 1.038-.21 1.55-.28 1.889-.97 3.696-2 5.303-1.04 1.606-2.4 2.975-4 4.017 3.03-2.282 5.15-5.557 6-9.25.11-.535.18-1.076.21-1.62z" fill="#21252b"/><path d="m1184.06 524.001c0-.228.09-.447.25-.608.16-.162.38-.252.61-.252h3.82c.23 0 .45.09.61.252.16.161.25.38.25.608 0 .229-.09.448-.25.611s-.38.256-.61.259h-3.9c-.2-.045-.39-.153-.53-.31-.14-.156-.23-.352-.25-.56z" fill="#000" opacity=".15"/><path d="m1181.72 520.83c-.2-.065-.36-.203-.46-.387-.1-.183-.12-.397-.07-.598.06-.201.19-.372.37-.48.17-.107.39-.141.59-.095 8.14 1.82 11.09-2.25 12-4.16.04-.102.1-.195.17-.273.08-.078.17-.139.27-.179.11-.04.21-.058.32-.054.11.005.22.032.32.081.1.048.18.117.25.201s.12.182.15.287.04.215.02.323c-.01.108-.05.212-.11.304-1 2-3.81 6-10.83 5.46-1.01-.025-2.01-.169-2.99-.43z" fill="#000" opacity=".255"/><path d="m1178.52 511.301c.02-.791.34-1.545.9-2.105.56-.559 1.31-.88 2.1-.895.21 0 .41.082.55.228.15.147.23.345.23.552s-.08.405-.23.551c-.14.147-.34.229-.55.229-.41 0-.81.164-1.1.457-.29.292-.46.689-.46 1.103s.17.81.46 1.103c.29.292.69.457 1.1.457h3.48c.11-.013.22-.002.33.031.1.034.2.089.28.162s.15.163.19.263c.05.1.07.209.07.319s-.02.218-.07.319c-.04.1-.11.19-.19.263s-.18.128-.28.161c-.11.033-.22.044-.33.032h-3.46c-.41-.004-.82-.091-1.2-.257s-.72-.408-1-.71-.5-.659-.64-1.048-.2-.802-.18-1.215z" fill="#000" opacity=".15"/><path d="m1402.4 684.499c0-2.62-1.04-5.133-2.89-6.986-1.86-1.853-4.37-2.894-6.99-2.894h-126.1c-1.3 0-2.58.256-3.78.752-1.2.497-2.29 1.225-3.2 2.143-.92.917-1.65 2.006-2.14 3.205-.5 1.199-.75 2.483-.75 3.78v267.77c0 1.297.25 2.581.75 3.779.49 1.198 1.22 2.286 2.14 3.203s2 1.644 3.2 2.14c1.2.495 2.48.749 3.78.748h136z" fill="#868a91"/><path d="m1286.34 684.499c0-1.297-.25-2.581-.75-3.78-.49-1.199-1.22-2.288-2.14-3.205-.91-.918-2-1.646-3.2-2.143-1.2-.496-2.48-.752-3.78-.752h-45.21c-1.3 0-2.58.256-3.78.752-1.2.497-2.29 1.225-3.2 2.143-.92.917-1.65 2.006-2.14 3.205-.5 1.199-.75 2.483-.75 3.78v277.64h64.95z" fill="#b2b6bb"/><path d="m1313.09 673.59h64c.13.013.24.074.33.171.08.097.12.222.11.349.01.126-.03.25-.12.345-.08.095-.19.155-.32.165h-64c-.06-.005-.12-.022-.18-.051-.05-.028-.1-.067-.14-.115-.04-.047-.07-.102-.09-.161s-.03-.121-.02-.183c-.01-.126.03-.251.11-.348.08-.098.19-.159.32-.172z" fill="#b2b6bb"/><path d="m1124 706.37h-145.801c-.054.009-.11.006-.163-.009-.053-.014-.102-.04-.144-.076s-.076-.08-.099-.13-.035-.105-.035-.16.012-.109.035-.159.057-.095.099-.13c.042-.036.091-.062.144-.077s.109-.018.163-.009h145.801c.05-.009.11-.006.16.009.06.015.1.041.15.077.04.035.07.08.1.13.02.05.03.104.03.159s-.01.11-.03.16c-.03.05-.06.094-.1.13-.05.036-.09.062-.15.076-.05.015-.11.018-.16.009z" fill="#3a3b3f"/><path d="m1377.86 718.071c-8.46 6.38-7.58 11.43-7.48 11.56s12.44 2.23 20.9-4.16 12.81-14.86 9.73-19-14.7 5.22-23.15 11.6z" fill="#606060"/><path d="m1348.61 705.232c5.88 4.44 6.86 13.09 6.76 13.18s-8.65 1.55-14.53-2.88-7.09-8.38-4.94-11.22 6.84-3.52 12.71.92z" fill="#606060"/><path d="m1381.4 688.293c2.41-12.555-.23-23.618-5.91-24.711-5.68-1.092-12.24 8.2-14.66 20.755-2.41 12.555.23 23.619 5.91 24.711 5.68 1.093 12.24-8.2 14.66-20.755z" fill="#606060"/><path d="m1371.06 679.911-10.26 69h-.17c.23-2.219.69-4.408 1.37-6.53 1.39-4.253 3.58-8.198 6.46-11.62 1.47-1.682 3.06-3.25 4.76-4.69 1.11-.87 2.28-1.67 3.42-2.49l3.67-2.1 2.25-1c.74-.352 1.5-.662 2.27-.93l4.66-1.55v.11l-4.65 1.58c-.77.265-1.53.576-2.27.93l-2.24 1-3.66 2.1c-1.13.82-2.29 1.62-3.4 2.49-1.69 1.437-3.27 3.001-4.72 4.68-1.43 1.694-2.69 3.527-3.76 5.47-1.07 1.937-1.96 3.973-2.65 6.08-.68 2.108-1.13 4.284-1.35 6.49v.07h-.28v-.1l10.51-69.09zm0 .12-10.3 68.87-.08-.1h.1l-.09.07c.23-2.216.69-4.401 1.37-6.52 1.39-4.243 3.58-8.181 6.45-11.6 1.46-1.682 3.04-3.25 4.74-4.69 1.11-.86 2.27-1.67 3.41-2.49l3.67-2.1 2.25-1c.74-.358 1.5-.669 2.27-.93l4.66-1.57v.11l-4.66 1.56c-.77.262-1.53.569-2.27.92l-2.25 1-3.67 2.1c-1.14.81-2.3 1.61-3.41 2.48-1.7 1.431-3.29 2.996-4.75 4.68-1.44 1.694-2.71 3.526-3.79 5.47-1.08 1.943-1.98 3.985-2.68 6.1-.68 2.12-1.14 4.305-1.37 6.52h.09l10.34-69z" fill="#000"/><path d="m1360.78 748.761c.74-3.954.98-7.986.71-12-.13-4.055-.95-8.057-2.44-11.83-1.46-3.786-3.82-7.165-6.86-9.85-3.08-2.635-6.67-4.616-10.54-5.82v-.12c3.9 1.192 7.51 3.162 10.63 5.79 3.09 2.688 5.49 6.08 7 9.89 1.47 3.8 2.27 7.826 2.36 11.9.07 2.027.02 4.057-.15 6.08-.07 1-.16 2-.26 3l-.16 1.52-.08.75c-.04.238-.11.471-.21.69zm0 .22c-.04-.289-.04-.581 0-.87l.08-.75.17-1.51c.1-1 .19-2 .27-3 .17-2.019.22-4.046.16-6.07-.08-4.048-.86-8.051-2.31-11.83-1.47-3.783-3.83-7.157-6.88-9.84-3.09-2.624-6.68-4.594-10.56-5.79v-.12c3.88 1.218 7.48 3.215 10.56 5.87 3.05 2.699 5.4 6.095 6.86 9.9 1.48 3.782 2.29 7.791 2.41 11.85.27 4.042.01 8.103-.76 12.08z" fill="#000"/><path d="m1405.93 786.3h-86.2c-.72 0-1.4-.284-1.91-.79-.51-.507-.79-1.194-.79-1.91s.28-1.402.79-1.909c.51-.506 1.19-.791 1.91-.791h86.2c.72 0 1.4.285 1.91.791.5.507.79 1.193.79 1.909s-.29 1.403-.79 1.91c-.51.506-1.19.79-1.91.79z" fill="#61656d"/><path d="m1402.33 786.301 14.3 175.8h-2.8l-21.5-175.8z" fill="#61656d"/><path d="m1322.83 786.301-14.3 175.8h2.9l21.4-175.8z" fill="#61656d"/><path d="m1322.83 786.301-.4 3.4h4.9l-17.2 172.4h1.3l21.4-175.8z" fill="#3f4249"/><path d="m1406.23 853.701h-2.5l-11.4-67.4h10l14.3 175.8h-1.4z" fill="#3f4249"/><path d="m1356.43 786.301 2.3 175.8h2.9l4.8-175.8z" fill="#3f4249"/><path d="m1387.93 737h-46.4v5.8h46.4z" fill="#4d61fc"/><path d="m1381.93 780.901h-34.6l-2.6-38.1h39.8z" fill="#868a91"/><path d="m1381.93 780.901h-34.6l-2.6-38.1h39.8z" fill="#4d61fc"/><path d="m1387.83 737h-7.5v5.8h-35.6l.2 1.6h28.5l.1 36.5h8.4l2.6-38.1h3.3z" fill="#000" opacity=".2"/><g fill="#4d61fc"><path d="m579.67 547.63h-2v-64.11c0-3.448 1.37-6.755 3.808-9.193s5.744-3.807 9.192-3.807h112.69v2h-112.69c-2.917 0-5.715 1.158-7.778 3.221s-3.222 4.861-3.222 7.779z"/><path d="m579.671 537.24h-2v-11c0-2.918-1.159-5.716-3.222-7.779s-4.861-3.221-7.778-3.221h-7.37c-3.448 0-6.755-1.37-9.193-3.808s-3.807-5.745-3.807-9.192v-30.72h2v30.69c0 2.917 1.159 5.715 3.222 7.778s4.86 3.222 7.778 3.222h7.37c3.448 0 6.754 1.369 9.192 3.807s3.808 5.745 3.808 9.193z"/><path d="m595 472.52h-2.09v-2h2.09c2.918 0 5.715-1.159 7.778-3.221 2.063-2.063 3.222-4.861 3.222-7.779v-10.21c.005-5.345 2.131-10.469 5.911-14.249 3.779-3.78 8.904-5.905 14.249-5.911h23.54v2h-23.59c-4.805.022-9.407 1.943-12.8 5.346-3.393 3.402-5.302 8.009-5.31 12.814v10.21c0 3.448-1.369 6.755-3.807 9.193s-5.745 3.807-9.193 3.807z"/><path d="m649.649 433.179c1.674 0 3.03-1.356 3.03-3.03 0-1.673-1.356-3.03-3.03-3.03-1.673 0-3.03 1.357-3.03 3.03 0 1.674 1.357 3.03 3.03 3.03z"/><path d="m547.299 474.54c1.674 0 3.031-1.356 3.031-3.03 0-1.673-1.357-3.03-3.031-3.03-1.673 0-3.029 1.357-3.029 3.03 0 1.674 1.356 3.03 3.029 3.03z"/><path d="m578.831 550.66c1.673 0 3.03-1.357 3.03-3.03 0-1.674-1.357-3.03-3.03-3.03-1.674 0-3.03 1.356-3.03 3.03 0 1.673 1.356 3.03 3.03 3.03z"/><path d="m1035.46 581.131h-2v-262.07c0-2.918-1.16-5.716-3.22-7.779-2.07-2.063-4.86-3.221-7.78-3.221h-236.841v-2h236.841c3.45 0 6.75 1.369 9.19 3.807s3.81 5.745 3.81 9.193z"/><path d="m1034.44 585.73c1.67 0 3.03-1.357 3.03-3.03s-1.36-3.03-3.03-3.03-3.03 1.357-3.03 3.03 1.36 3.03 3.03 3.03z"/><path d="m1035.46 518h-2v-11c0-3.448 1.37-6.755 3.81-9.193s5.74-3.807 9.19-3.807h11.43c4.5-.019 8.8-1.818 11.98-5.004 3.17-3.186 4.95-7.5 4.95-11.996v-74.73h2v74.73c0 5.027-1.99 9.849-5.54 13.41s-8.36 5.571-13.39 5.59h-11.43c-2.92 0-5.71 1.158-7.78 3.221-2.06 2.063-3.22 4.861-3.22 7.779z"/><path d="m918.82 349.421h-61.65v-2h61.65c4.421-.003 8.661-1.76 11.788-4.885 3.127-3.126 4.887-7.364 4.892-11.785v-11.69c0-3.448 1.37-6.755 3.808-9.193s5.744-3.807 9.192-3.807h69.73v2h-69.73c-2.917 0-5.715 1.158-7.778 3.221s-3.222 4.861-3.222 7.779v11.69c-.005 4.951-1.975 9.698-5.478 13.199-3.502 3.5-8.25 5.468-13.202 5.471z"/><path d="m913.479 268.72c1.674 0 3.03-1.356 3.03-3.03 0-1.673-1.356-3.03-3.03-3.03-1.673 0-3.03 1.357-3.03 3.03 0 1.674 1.357 3.03 3.03 3.03z"/><path d="m857.171 351.451c1.673 0 3.03-1.357 3.03-3.03 0-1.674-1.357-3.03-3.03-3.03-1.674 0-3.03 1.356-3.03 3.03 0 1.673 1.356 3.03 3.03 3.03z"/><path d="m1075.82 405.3c1.67 0 3.03-1.356 3.03-3.03 0-1.673-1.36-3.03-3.03-3.03s-3.03 1.357-3.03 3.03c0 1.674 1.36 3.03 3.03 3.03z"/><path d="m1035.46 464.46h-2v-11c0-2.917-1.16-5.715-3.22-7.778s-4.86-3.222-7.78-3.222h-11.46c-5.01-.018-9.82-2.019-13.365-5.565-3.546-3.546-5.546-8.35-5.565-13.365v-44.79h2v44.77c.019 4.485 1.808 8.78 4.979 11.951s7.471 4.961 11.951 4.979h11.44c3.45 0 6.75 1.37 9.19 3.808s3.81 5.744 3.81 9.192z"/><path d="m993.091 381.771c1.673 0 3.03-1.357 3.03-3.03s-1.357-3.03-3.03-3.03c-1.674 0-3.03 1.357-3.03 3.03s1.356 3.03 3.03 3.03z"/><path d="m970.26 308.059h-2.08c-3.448 0-6.754-1.369-9.192-3.807s-3.808-5.745-3.808-9.193v-11.69c-.005-4.422-1.764-8.661-4.891-11.788s-7.367-4.886-11.789-4.892h-25v-2h25c4.953.006 9.701 1.976 13.203 5.478s5.472 8.25 5.477 13.202v11.69c0 2.918 1.159 5.716 3.222 7.779s4.861 3.221 7.778 3.221h2.08z"/><path d="m909.38 397.9h-206.71c-3.077 0-5.57 2.494-5.57 5.57v138.93c0 3.077 2.493 5.57 5.57 5.57h206.71c3.076 0 5.57-2.493 5.57-5.57v-138.93c0-3.076-2.494-5.57-5.57-5.57z"/></g><path d="m909.38 397.9h-206.71c-3.077 0-5.57 2.494-5.57 5.57v138.93c0 3.077 2.493 5.57 5.57 5.57h206.71c3.076 0 5.57-2.493 5.57-5.57v-138.93c0-3.076-2.494-5.57-5.57-5.57z" fill="#fff" opacity=".6"/><path d="m905.25 397.9h4.13c1.477 0 2.894.587 3.939 1.632 1.044 1.044 1.631 2.461 1.631 3.938v5.33h-9.69v-10.9z" fill="#4d61fc"/><path d="m905.25 397.9h4.13c1.477 0 2.894.587 3.939 1.632 1.044 1.044 1.631 2.461 1.631 3.938v5.33h-9.69v-10.9z" fill="#fff" opacity=".2"/><path d="m906.921 397.9h-206.71c-3.077 0-5.57 2.494-5.57 5.57v138.93c0 3.077 2.493 5.57 5.57 5.57h206.71c3.076 0 5.57-2.493 5.57-5.57v-138.93c0-3.076-2.494-5.57-5.57-5.57z" fill="#4d61fc"/><path d="m906.921 397.9h-206.71c-3.077 0-5.57 2.494-5.57 5.57v138.93c0 3.077 2.493 5.57 5.57 5.57h206.71c3.076 0 5.57-2.493 5.57-5.57v-138.93c0-3.076-2.494-5.57-5.57-5.57z" fill="#fff" opacity=".9"/><path d="m700.211 397.9h61.29v150.1h-61.29c-1.478 0-2.894-.586-3.939-1.631s-1.631-2.461-1.631-3.939v-138.95c-.002-.732.141-1.457.421-2.134.279-.677.689-1.292 1.207-1.811.517-.518 1.131-.929 1.808-1.21.676-.28 1.401-.425 2.134-.425z" fill="#4d61fc"/><path d="m700.211 397.9h61.29v150.1h-61.29c-1.478 0-2.894-.586-3.939-1.631s-1.631-2.461-1.631-3.939v-138.95c-.002-.732.141-1.457.421-2.134.279-.677.689-1.292 1.207-1.811.517-.518 1.131-.929 1.808-1.21.676-.28 1.401-.425 2.134-.425z" fill="#fff" opacity=".7"/><path d="m912.491 408.8v-5.32c0-.732-.145-1.458-.425-2.135-.281-.677-.692-1.292-1.21-1.81s-1.133-.929-1.81-1.21c-.677-.28-1.403-.425-2.135-.425h-206.7c-.733 0-1.458.145-2.134.425-.677.281-1.291.692-1.808 1.21-.518.519-.928 1.134-1.207 1.811-.28.677-.423 1.402-.421 2.134v5.32z" fill="#4d61fc"/><path d="m722.719 466.069c1.762 0 3.19-1.428 3.19-3.19 0-1.761-1.428-3.19-3.19-3.19s-3.19 1.429-3.19 3.19c0 1.762 1.428 3.19 3.19 3.19z" fill="#fff"/><path d="m749.02 461.539h-18.79c-.442 0-.8.358-.8.8v1.13c0 .442.358.8.8.8h18.79c.442 0 .8-.358.8-.8v-1.13c0-.442-.358-.8-.8-.8z" fill="#4d61fc"/><path d="m749.02 461.539h-18.79c-.442 0-.8.358-.8.8v1.13c0 .442.358.8.8.8h18.79c.442 0 .8-.358.8-.8v-1.13c0-.442-.358-.8-.8-.8z" fill="#fff" opacity=".3"/><path d="m722.719 477.9c1.762 0 3.19-1.429 3.19-3.19 0-1.762-1.428-3.19-3.19-3.19s-3.19 1.428-3.19 3.19c0 1.761 1.428 3.19 3.19 3.19z" fill="#fff"/><path d="m749.02 473.369h-18.79c-.442 0-.8.358-.8.8v1.13c0 .442.358.8.8.8h18.79c.442 0 .8-.358.8-.8v-1.13c0-.442-.358-.8-.8-.8z" fill="#4d61fc"/><path d="m749.02 473.369h-18.79c-.442 0-.8.358-.8.8v1.13c0 .442.358.8.8.8h18.79c.442 0 .8-.358.8-.8v-1.13c0-.442-.358-.8-.8-.8z" fill="#fff" opacity=".3"/><path d="m709.561 434.58c2.623 0 4.75-2.127 4.75-4.75s-2.127-4.75-4.75-4.75c-2.624 0-4.75 2.127-4.75 4.75s2.126 4.75 4.75 4.75z" fill="#4d61fc"/><path d="m709.561 452.92c2.623 0 4.75-2.127 4.75-4.75s-2.127-4.75-4.75-4.75c-2.624 0-4.75 2.127-4.75 4.75s2.126 4.75 4.75 4.75z" fill="#4d61fc"/><path d="m709.561 495.811c2.623 0 4.75-2.127 4.75-4.75 0-2.624-2.127-4.75-4.75-4.75-2.624 0-4.75 2.126-4.75 4.75 0 2.623 2.126 4.75 4.75 4.75z" fill="#4d61fc"/><path d="m722.719 508.95c1.762 0 3.19-1.428 3.19-3.19 0-1.761-1.428-3.19-3.19-3.19s-3.19 1.429-3.19 3.19c0 1.762 1.428 3.19 3.19 3.19z" fill="#fff"/><path d="m749.02 504.43h-18.79c-.442 0-.8.358-.8.8v1.13c0 .442.358.8.8.8h18.79c.442 0 .8-.358.8-.8v-1.13c0-.442-.358-.8-.8-.8z" fill="#4d61fc"/><path d="m749.02 504.43h-18.79c-.442 0-.8.358-.8.8v1.13c0 .442.358.8.8.8h18.79c.442 0 .8-.358.8-.8v-1.13c0-.442-.358-.8-.8-.8z" fill="#fff" opacity=".3"/><path d="m722.719 520.79c1.762 0 3.19-1.428 3.19-3.19s-1.428-3.19-3.19-3.19-3.19 1.428-3.19 3.19 1.428 3.19 3.19 3.19z" fill="#fff"/><path d="m749.02 516.26h-18.79c-.442 0-.8.358-.8.8v1.13c0 .442.358.8.8.8h18.79c.442 0 .8-.358.8-.8v-1.13c0-.442-.358-.8-.8-.8z" fill="#4d61fc"/><path d="m749.02 516.26h-18.79c-.442 0-.8.358-.8.8v1.13c0 .442.358.8.8.8h18.79c.442 0 .8-.358.8-.8v-1.13c0-.442-.358-.8-.8-.8z" fill="#fff" opacity=".3"/><path d="m749.01 446.801h-28.69c-.442 0-.8.358-.8.8v1.13c0 .442.358.8.8.8h28.69c.441 0 .8-.358.8-.8v-1.13c0-.442-.359-.8-.8-.8z" fill="#4d61fc"/><path d="m749.01 446.801h-28.69c-.442 0-.8.358-.8.8v1.13c0 .442.358.8.8.8h28.69c.441 0 .8-.358.8-.8v-1.13c0-.442-.359-.8-.8-.8z" fill="#fff" opacity=".3"/><path d="m749.01 428.471h-28.69c-.442 0-.8.358-.8.8v1.13c0 .442.358.8.8.8h28.69c.441 0 .8-.358.8-.8v-1.13c0-.442-.359-.8-.8-.8z" fill="#4d61fc"/><path d="m749.01 428.471h-28.69c-.442 0-.8.358-.8.8v1.13c0 .442.358.8.8.8h28.69c.441 0 .8-.358.8-.8v-1.13c0-.442-.359-.8-.8-.8z" fill="#fff" opacity=".3"/><path d="m749.01 488.869h-28.69c-.442 0-.8.358-.8.8v1.13c0 .442.358.8.8.8h28.69c.441 0 .8-.358.8-.8v-1.13c0-.442-.359-.8-.8-.8z" fill="#4d61fc"/><path d="m749.01 488.869h-28.69c-.442 0-.8.358-.8.8v1.13c0 .442.358.8.8.8h28.69c.441 0 .8-.358.8-.8v-1.13c0-.442-.359-.8-.8-.8z" fill="#fff" opacity=".3"/><path d="m840.83 428.471h-58.03c-.442 0-.8.358-.8.8v1.13c0 .442.358.8.8.8h58.03c.442 0 .8-.358.8-.8v-1.13c0-.442-.358-.8-.8-.8z" fill="#4d61fc"/><path d="m890.359 428.471h-43.36c-.442 0-.8.358-.8.8v1.13c0 .442.358.8.8.8h43.36c.442 0 .8-.358.8-.8v-1.13c0-.442-.358-.8-.8-.8z" fill="#4d61fc"/><path d="m840.83 489.25h-58.03c-.442 0-.8.358-.8.8v1.13c0 .442.358.8.8.8h58.03c.442 0 .8-.358.8-.8v-1.13c0-.442-.358-.8-.8-.8z" fill="#4d61fc"/><path d="m890.359 489.25h-43.36c-.442 0-.8.358-.8.8v1.13c0 .442.358.8.8.8h43.36c.442 0 .8-.358.8-.8v-1.13c0-.442-.358-.8-.8-.8z" fill="#4d61fc"/><path d="m840.82 504.43h-25.75c-.442 0-.8.358-.8.8v1.13c0 .442.358.8.8.8h25.75c.441 0 .8-.358.8-.8v-1.13c0-.442-.359-.8-.8-.8z" fill="#4d61fc"/><path d="m890.359 504.43h-43.36c-.442 0-.8.358-.8.8v1.13c0 .442.358.8.8.8h43.36c.442 0 .8-.358.8-.8v-1.13c0-.442-.358-.8-.8-.8z" fill="#4d61fc"/><path d="m840.82 516.23h-25.75c-.442 0-.8.359-.8.801v1.129c0 .442.358.801.8.801h25.75c.441 0 .8-.359.8-.801v-1.129c0-.442-.359-.801-.8-.801z" fill="#4d61fc"/><path d="m890.359 516.23h-43.36c-.442 0-.8.359-.8.801v1.129c0 .442.358.801.8.801h43.36c.442 0 .8-.359.8-.801v-1.129c0-.442-.358-.801-.8-.801z" fill="#4d61fc"/><path d="m840.83 446.689h-58.03c-.442 0-.8.359-.8.8v1.13c0 .442.358.8.8.8h58.03c.442 0 .8-.358.8-.8v-1.13c0-.441-.358-.8-.8-.8z" fill="#4d61fc"/><path d="m890.359 446.689h-43.36c-.442 0-.8.359-.8.8v1.13c0 .442.358.8.8.8h43.36c.442 0 .8-.358.8-.8v-1.13c0-.441-.358-.8-.8-.8z" fill="#4d61fc"/><path d="m840.82 461.859h-25.75c-.442 0-.8.359-.8.8v1.13c0 .442.358.8.8.8h25.75c.441 0 .8-.358.8-.8v-1.13c0-.441-.359-.8-.8-.8z" fill="#4d61fc"/><path d="m890.359 461.859h-43.36c-.442 0-.8.359-.8.8v1.13c0 .442.358.8.8.8h43.36c.442 0 .8-.358.8-.8v-1.13c0-.441-.358-.8-.8-.8z" fill="#4d61fc"/><path d="m840.82 473.66h-25.75c-.442 0-.8.358-.8.8v1.13c0 .442.358.8.8.8h25.75c.441 0 .8-.358.8-.8v-1.13c0-.442-.359-.8-.8-.8z" fill="#4d61fc"/><path d="m890.359 473.66h-43.36c-.442 0-.8.358-.8.8v1.13c0 .442.358.8.8.8h43.36c.442 0 .8-.358.8-.8v-1.13c0-.442-.358-.8-.8-.8z" fill="#4d61fc"/><path d="m840.82 504.43h-25.75c-.442 0-.8.358-.8.8v1.13c0 .442.358.8.8.8h25.75c.441 0 .8-.358.8-.8v-1.13c0-.442-.359-.8-.8-.8z" fill="#fff" opacity=".25"/><path d="m890.359 504.43h-43.36c-.442 0-.8.358-.8.8v1.13c0 .442.358.8.8.8h43.36c.442 0 .8-.358.8-.8v-1.13c0-.442-.358-.8-.8-.8z" fill="#fff" opacity=".25"/><path d="m840.82 516.23h-25.75c-.442 0-.8.359-.8.801v1.129c0 .442.358.801.8.801h25.75c.441 0 .8-.359.8-.801v-1.129c0-.442-.359-.801-.8-.801z" fill="#fff" opacity=".25"/><path d="m890.359 516.23h-43.36c-.442 0-.8.359-.8.801v1.129c0 .442.358.801.8.801h43.36c.442 0 .8-.359.8-.801v-1.129c0-.442-.358-.801-.8-.801z" fill="#fff" opacity=".25"/><path d="m840.82 461.859h-25.75c-.442 0-.8.359-.8.8v1.13c0 .442.358.8.8.8h25.75c.441 0 .8-.358.8-.8v-1.13c0-.441-.359-.8-.8-.8z" fill="#fff" opacity=".25"/><path d="m890.359 461.859h-43.36c-.442 0-.8.359-.8.8v1.13c0 .442.358.8.8.8h43.36c.442 0 .8-.358.8-.8v-1.13c0-.441-.358-.8-.8-.8z" fill="#fff" opacity=".25"/><path d="m840.82 473.66h-25.75c-.442 0-.8.358-.8.8v1.13c0 .442.358.8.8.8h25.75c.441 0 .8-.358.8-.8v-1.13c0-.442-.359-.8-.8-.8z" fill="#fff" opacity=".25"/><path d="m890.359 473.66h-43.36c-.442 0-.8.358-.8.8v1.13c0 .442.358.8.8.8h43.36c.442 0 .8-.358.8-.8v-1.13c0-.442-.358-.8-.8-.8z" fill="#fff" opacity=".25"/><path d="m704.81 405.241c1.044 0 1.89-.846 1.89-1.89s-.846-1.89-1.89-1.89-1.89.846-1.89 1.89.846 1.89 1.89 1.89z" fill="#fff" opacity=".85"/><path d="m713.679 405.241c1.044 0 1.89-.846 1.89-1.89s-.846-1.89-1.89-1.89-1.89.846-1.89 1.89.846 1.89 1.89 1.89z" fill="#fff" opacity=".85"/><path d="m722.55 405.241c1.044 0 1.89-.846 1.89-1.89s-.846-1.89-1.89-1.89-1.89.846-1.89 1.89.846 1.89 1.89 1.89z" fill="#fff" opacity=".85"/><g fill="#fff" opacity=".3"><path d="m709.561 434.58c2.623 0 4.75-2.127 4.75-4.75s-2.127-4.75-4.75-4.75c-2.624 0-4.75 2.127-4.75 4.75s2.126 4.75 4.75 4.75z" opacity=".3"/><path d="m709.561 452.92c2.623 0 4.75-2.127 4.75-4.75s-2.127-4.75-4.75-4.75c-2.624 0-4.75 2.127-4.75 4.75s2.126 4.75 4.75 4.75z" opacity=".3"/><path d="m709.561 495.811c2.623 0 4.75-2.127 4.75-4.75 0-2.624-2.127-4.75-4.75-4.75-2.624 0-4.75 2.126-4.75 4.75 0 2.623 2.126 4.75 4.75 4.75z" opacity=".3"/></g><path d="m789.741 229.221h-206.71c-3.076 0-5.57 2.493-5.57 5.57v138.93c0 3.076 2.494 5.57 5.57 5.57h206.71c3.076 0 5.57-2.494 5.57-5.57v-138.93c0-3.077-2.494-5.57-5.57-5.57z" fill="#4d61fc"/><path d="m789.741 229.221h-206.71c-3.076 0-5.57 2.493-5.57 5.57v138.93c0 3.076 2.494 5.57 5.57 5.57h206.71c3.076 0 5.57-2.494 5.57-5.57v-138.93c0-3.077-2.494-5.57-5.57-5.57z" fill="#fff" opacity=".6"/><path d="m785.619 229.221h4.13c1.477 0 2.894.587 3.939 1.631 1.044 1.045 1.631 2.461 1.631 3.939v5.33h-9.69v-10.9z" fill="#4d61fc"/><path d="m785.619 229.221h4.13c1.477 0 2.894.587 3.939 1.631 1.044 1.045 1.631 2.461 1.631 3.939v5.33h-9.69v-10.9z" fill="#fff" opacity=".2"/><path d="m787.28 229.221h-206.71c-3.076 0-5.57 2.493-5.57 5.57v138.93c0 3.076 2.494 5.57 5.57 5.57h206.71c3.076 0 5.57-2.494 5.57-5.57v-138.93c0-3.077-2.494-5.57-5.57-5.57z" fill="#4d61fc"/><path d="m787.28 229.221h-206.71c-3.076 0-5.57 2.493-5.57 5.57v138.93c0 3.076 2.494 5.57 5.57 5.57h206.71c3.076 0 5.57-2.494 5.57-5.57v-138.93c0-3.077-2.494-5.57-5.57-5.57z" fill="#fff" opacity=".9"/><path d="m580.58 229.221h61.29v150.07h-61.29c-1.477 0-2.894-.587-3.939-1.632-1.044-1.044-1.631-2.461-1.631-3.938v-138.93c0-1.478.587-2.894 1.631-3.939 1.045-1.044 2.462-1.631 3.939-1.631z" fill="#4d61fc"/><path d="m580.58 229.221h61.29v150.07h-61.29c-1.477 0-2.894-.587-3.939-1.632-1.044-1.044-1.631-2.461-1.631-3.938v-138.93c0-1.478.587-2.894 1.631-3.939 1.045-1.044 2.462-1.631 3.939-1.631z" fill="#fff" opacity=".7"/><path d="m792.85 240.121v-5.33c0-1.478-.587-2.894-1.631-3.939-1.045-1.044-2.462-1.631-3.939-1.631h-206.7c-1.478 0-2.896.586-3.942 1.631-1.046 1.044-1.635 2.461-1.638 3.939v5.33z" fill="#4d61fc"/><path d="m603.081 297.38c1.761 0 3.19-1.428 3.19-3.19s-1.429-3.19-3.19-3.19c-1.762 0-3.19 1.428-3.19 3.19s1.428 3.19 3.19 3.19z" fill="#fff"/><path d="m629.379 292.859h-18.79c-.442 0-.8.359-.8.8v1.13c0 .442.358.8.8.8h18.79c.442 0 .8-.358.8-.8v-1.13c0-.441-.358-.8-.8-.8z" fill="#4d61fc"/><path d="m629.379 292.859h-18.79c-.442 0-.8.359-.8.8v1.13c0 .442.358.8.8.8h18.79c.442 0 .8-.358.8-.8v-1.13c0-.441-.358-.8-.8-.8z" fill="#fff" opacity=".3"/><path d="m603.081 309.22c1.761 0 3.19-1.428 3.19-3.19s-1.429-3.19-3.19-3.19c-1.762 0-3.19 1.428-3.19 3.19s1.428 3.19 3.19 3.19z" fill="#fff"/><path d="m629.379 304.689h-18.79c-.442 0-.8.359-.8.8v1.13c0 .442.358.8.8.8h18.79c.442 0 .8-.358.8-.8v-1.13c0-.441-.358-.8-.8-.8z" fill="#4d61fc"/><path d="m629.379 304.689h-18.79c-.442 0-.8.359-.8.8v1.13c0 .442.358.8.8.8h18.79c.442 0 .8-.358.8-.8v-1.13c0-.441-.358-.8-.8-.8z" fill="#fff" opacity=".3"/><path d="m589.92 265.9c2.623 0 4.75-2.126 4.75-4.75 0-2.623-2.127-4.75-4.75-4.75s-4.75 2.127-4.75 4.75c0 2.624 2.127 4.75 4.75 4.75z" fill="#4d61fc"/><path d="m589.92 284.24c2.623 0 4.75-2.126 4.75-4.75 0-2.623-2.127-4.75-4.75-4.75s-4.75 2.127-4.75 4.75c0 2.624 2.127 4.75 4.75 4.75z" fill="#4d61fc"/><path d="m589.92 327.119c2.623 0 4.75-2.127 4.75-4.75s-2.127-4.75-4.75-4.75-4.75 2.127-4.75 4.75 2.127 4.75 4.75 4.75z" fill="#4d61fc"/><path d="m603.081 340.271c1.761 0 3.19-1.429 3.19-3.19 0-1.762-1.429-3.19-3.19-3.19-1.762 0-3.19 1.428-3.19 3.19 0 1.761 1.428 3.19 3.19 3.19z" fill="#fff"/><path d="m629.379 335.75h-18.79c-.442 0-.8.358-.8.8v1.13c0 .442.358.8.8.8h18.79c.442 0 .8-.358.8-.8v-1.13c0-.442-.358-.8-.8-.8z" fill="#4d61fc"/><path d="m629.379 335.75h-18.79c-.442 0-.8.358-.8.8v1.13c0 .442.358.8.8.8h18.79c.442 0 .8-.358.8-.8v-1.13c0-.442-.358-.8-.8-.8z" fill="#fff" opacity=".3"/><path d="m603.081 352.11c1.761 0 3.19-1.428 3.19-3.19 0-1.761-1.429-3.19-3.19-3.19-1.762 0-3.19 1.429-3.19 3.19 0 1.762 1.428 3.19 3.19 3.19z" fill="#fff"/><path d="m629.379 347.58h-18.79c-.442 0-.8.358-.8.8v1.13c0 .442.358.8.8.8h18.79c.442 0 .8-.358.8-.8v-1.13c0-.442-.358-.8-.8-.8z" fill="#4d61fc"/><path d="m629.379 347.58h-18.79c-.442 0-.8.358-.8.8v1.13c0 .442.358.8.8.8h18.79c.442 0 .8-.358.8-.8v-1.13c0-.442-.358-.8-.8-.8z" fill="#fff" opacity=".3"/><path d="m629.381 278.119h-28.69c-.442 0-.8.358-.8.8v1.13c0 .442.358.8.8.8h28.69c.441 0 .8-.358.8-.8v-1.13c0-.442-.359-.8-.8-.8z" fill="#4d61fc"/><path d="m629.381 278.119h-28.69c-.442 0-.8.358-.8.8v1.13c0 .442.358.8.8.8h28.69c.441 0 .8-.358.8-.8v-1.13c0-.442-.359-.8-.8-.8z" fill="#fff" opacity=".3"/><path d="m629.381 259.789h-28.69c-.442 0-.8.358-.8.8v1.13c0 .442.358.8.8.8h28.69c.441 0 .8-.358.8-.8v-1.13c0-.442-.359-.8-.8-.8z" fill="#4d61fc"/><path d="m629.381 259.789h-28.69c-.442 0-.8.358-.8.8v1.13c0 .442.358.8.8.8h28.69c.441 0 .8-.358.8-.8v-1.13c0-.442-.359-.8-.8-.8z" fill="#fff" opacity=".3"/><path d="m629.381 320.189h-28.69c-.442 0-.8.359-.8.8v1.13c0 .442.358.8.8.8h28.69c.441 0 .8-.358.8-.8v-1.13c0-.441-.359-.8-.8-.8z" fill="#4d61fc"/><path d="m629.381 320.189h-28.69c-.442 0-.8.359-.8.8v1.13c0 .442.358.8.8.8h28.69c.441 0 .8-.358.8-.8v-1.13c0-.441-.359-.8-.8-.8z" fill="#fff" opacity=".3"/><path d="m721.199 259.789h-58.03c-.442 0-.8.358-.8.8v1.13c0 .442.358.8.8.8h58.03c.442 0 .8-.358.8-.8v-1.13c0-.442-.358-.8-.8-.8z" fill="#4d61fc"/><path d="m770.73 259.789h-43.36c-.442 0-.8.358-.8.8v1.13c0 .442.358.8.8.8h43.36c.442 0 .8-.358.8-.8v-1.13c0-.442-.358-.8-.8-.8z" fill="#4d61fc"/><path d="m721.199 320.57h-58.03c-.442 0-.8.358-.8.8v1.13c0 .442.358.8.8.8h58.03c.442 0 .8-.358.8-.8v-1.13c0-.442-.358-.8-.8-.8z" fill="#4d61fc"/><path d="m770.73 320.57h-43.36c-.442 0-.8.358-.8.8v1.13c0 .442.358.8.8.8h43.36c.442 0 .8-.358.8-.8v-1.13c0-.442-.358-.8-.8-.8z" fill="#4d61fc"/><path d="m721.191 335.75h-25.75c-.442 0-.8.358-.8.8v1.13c0 .442.358.8.8.8h25.75c.441 0 .8-.358.8-.8v-1.13c0-.442-.359-.8-.8-.8z" fill="#4d61fc"/><path d="m770.73 335.75h-43.36c-.442 0-.8.358-.8.8v1.13c0 .442.358.8.8.8h43.36c.442 0 .8-.358.8-.8v-1.13c0-.442-.358-.8-.8-.8z" fill="#4d61fc"/><path d="m721.191 347.551h-25.75c-.442 0-.8.358-.8.8v1.13c0 .442.358.8.8.8h25.75c.441 0 .8-.358.8-.8v-1.13c0-.442-.359-.8-.8-.8z" fill="#4d61fc"/><path d="m770.73 347.551h-43.36c-.442 0-.8.358-.8.8v1.13c0 .442.358.8.8.8h43.36c.442 0 .8-.358.8-.8v-1.13c0-.442-.358-.8-.8-.8z" fill="#4d61fc"/><path d="m721.199 278h-58.03c-.442 0-.8.358-.8.8v1.13c0 .442.358.8.8.8h58.03c.442 0 .8-.358.8-.8v-1.13c0-.442-.358-.8-.8-.8z" fill="#4d61fc"/><path d="m770.73 278h-43.36c-.442 0-.8.358-.8.8v1.13c0 .442.358.8.8.8h43.36c.442 0 .8-.358.8-.8v-1.13c0-.442-.358-.8-.8-.8z" fill="#4d61fc"/><path d="m721.191 293.18h-25.75c-.442 0-.8.358-.8.8v1.13c0 .442.358.8.8.8h25.75c.441 0 .8-.358.8-.8v-1.13c0-.442-.359-.8-.8-.8z" fill="#4d61fc"/><path d="m770.73 293.18h-43.36c-.442 0-.8.358-.8.8v1.13c0 .442.358.8.8.8h43.36c.442 0 .8-.358.8-.8v-1.13c0-.442-.358-.8-.8-.8z" fill="#4d61fc"/><path d="m721.191 304.98h-25.75c-.442 0-.8.359-.8.8v1.13c0 .442.358.8.8.8h25.75c.441 0 .8-.358.8-.8v-1.13c0-.441-.359-.8-.8-.8z" fill="#4d61fc"/><path d="m770.73 304.98h-43.36c-.442 0-.8.359-.8.8v1.13c0 .442.358.8.8.8h43.36c.442 0 .8-.358.8-.8v-1.13c0-.441-.358-.8-.8-.8z" fill="#4d61fc"/><path d="m721.191 335.75h-25.75c-.442 0-.8.358-.8.8v1.13c0 .442.358.8.8.8h25.75c.441 0 .8-.358.8-.8v-1.13c0-.442-.359-.8-.8-.8z" fill="#fff" opacity=".25"/><path d="m770.73 335.75h-43.36c-.442 0-.8.358-.8.8v1.13c0 .442.358.8.8.8h43.36c.442 0 .8-.358.8-.8v-1.13c0-.442-.358-.8-.8-.8z" fill="#fff" opacity=".25"/><path d="m721.191 347.551h-25.75c-.442 0-.8.358-.8.8v1.13c0 .442.358.8.8.8h25.75c.441 0 .8-.358.8-.8v-1.13c0-.442-.359-.8-.8-.8z" fill="#fff" opacity=".25"/><path d="m770.73 347.551h-43.36c-.442 0-.8.358-.8.8v1.13c0 .442.358.8.8.8h43.36c.442 0 .8-.358.8-.8v-1.13c0-.442-.358-.8-.8-.8z" fill="#fff" opacity=".25"/><path d="m721.191 293.18h-25.75c-.442 0-.8.358-.8.8v1.13c0 .442.358.8.8.8h25.75c.441 0 .8-.358.8-.8v-1.13c0-.442-.359-.8-.8-.8z" fill="#fff" opacity=".25"/><path d="m770.73 293.18h-43.36c-.442 0-.8.358-.8.8v1.13c0 .442.358.8.8.8h43.36c.442 0 .8-.358.8-.8v-1.13c0-.442-.358-.8-.8-.8z" fill="#fff" opacity=".25"/><path d="m721.191 304.98h-25.75c-.442 0-.8.359-.8.8v1.13c0 .442.358.8.8.8h25.75c.441 0 .8-.358.8-.8v-1.13c0-.441-.359-.8-.8-.8z" fill="#fff" opacity=".25"/><path d="m770.73 304.98h-43.36c-.442 0-.8.359-.8.8v1.13c0 .442.358.8.8.8h43.36c.442 0 .8-.358.8-.8v-1.13c0-.441-.358-.8-.8-.8z" fill="#fff" opacity=".25"/><path d="m585.179 236.559c1.044 0 1.89-.846 1.89-1.89s-.846-1.89-1.89-1.89-1.89.846-1.89 1.89.846 1.89 1.89 1.89z" fill="#fff" opacity=".85"/><path d="m594.04 236.559c1.044 0 1.89-.846 1.89-1.89s-.846-1.89-1.89-1.89c-1.043 0-1.89.846-1.89 1.89s.847 1.89 1.89 1.89z" fill="#fff" opacity=".85"/><path d="m602.909 236.559c1.044 0 1.89-.846 1.89-1.89s-.846-1.89-1.89-1.89c-1.043 0-1.889.846-1.889 1.89s.846 1.89 1.889 1.89z" fill="#fff" opacity=".85"/><g fill="#fff" opacity=".3"><path d="m589.92 265.9c2.623 0 4.75-2.126 4.75-4.75 0-2.623-2.127-4.75-4.75-4.75s-4.75 2.127-4.75 4.75c0 2.624 2.127 4.75 4.75 4.75z" opacity=".3"/><path d="m589.92 284.24c2.623 0 4.75-2.126 4.75-4.75 0-2.623-2.127-4.75-4.75-4.75s-4.75 2.127-4.75 4.75c0 2.624 2.127 4.75 4.75 4.75z" opacity=".3"/><path d="m589.92 327.121c2.623 0 4.75-2.127 4.75-4.75s-2.127-4.75-4.75-4.75-4.75 2.127-4.75 4.75 2.127 4.75 4.75 4.75z" opacity=".3"/></g><path d="m792.659 414.189c16.635 0 30.12-13.485 30.12-30.12s-13.485-30.12-30.12-30.12-30.12 13.485-30.12 30.12 13.485 30.12 30.12 30.12z" fill="#21252b"/><path d="m788.28 414.189c16.635 0 30.12-13.485 30.12-30.12s-13.485-30.12-30.12-30.12-30.12 13.485-30.12 30.12 13.485 30.12 30.12 30.12z" fill="#21252b"/><path d="m788.28 414.189c16.635 0 30.12-13.485 30.12-30.12s-13.485-30.12-30.12-30.12-30.12 13.485-30.12 30.12 13.485 30.12 30.12 30.12z" fill="#fff" opacity=".2"/><path d="m788.28 409.689c-5.067.002-10.022-1.499-14.236-4.313-4.215-2.814-7.5-6.814-9.441-11.495-1.94-4.682-2.449-9.833-1.462-14.804.988-4.97 3.427-9.536 7.01-13.12 3.582-3.584 8.147-6.025 13.118-7.015 4.97-.989 10.121-.482 14.803 1.456 4.682 1.939 8.684 5.223 11.5 9.436 2.816 4.214 4.318 9.168 4.318 14.235-.008 6.791-2.708 13.301-7.509 18.104s-11.31 7.506-18.101 7.516zm0-50.24c-4.869-.002-9.63 1.441-13.68 4.145-4.051 2.704-7.208 6.548-9.073 11.047-1.865 4.498-2.354 9.449-1.405 14.225.949 4.777 3.293 9.164 6.736 12.609 3.443 3.444 7.83 5.79 12.606 6.74 4.776.951 9.726.464 14.226-1.399 4.499-1.863 8.345-5.019 11.051-9.068 2.705-4.049 4.149-8.809 4.149-13.679-.005-6.526-2.599-12.784-7.213-17.399-4.614-4.616-10.87-7.213-17.397-7.221z" fill="#fff"/><path d="m782.82 395.939c-.328.002-.654-.062-.958-.188-.303-.125-.579-.309-.812-.542l-8.56-8.56c-.454-.472-.705-1.104-.699-1.759.007-.656.271-1.282.735-1.745s1.091-.725 1.747-.73c.655-.005 1.287.248 1.757.704l6.79 6.79 16.08-16.08c.477-.425 1.098-.653 1.736-.635.639.018 1.247.28 1.698.732.452.451.714 1.059.732 1.697.017.639-.21 1.26-.636 1.736l-17.85 17.85c-.23.233-.504.417-.806.542s-.626.189-.954.188z" fill="#fff"/><path d="m572.141 423.34h-48.46c-2.602 0-4.71 2.109-4.71 4.71v22.58c0 2.601 2.108 4.71 4.71 4.71h48.46c2.601 0 4.71-2.109 4.71-4.71v-22.58c0-2.601-2.109-4.71-4.71-4.71z" fill="#4d61fc"/><path d="m572.141 423.34h-48.46c-2.602 0-4.71 2.109-4.71 4.71v22.58c0 2.601 2.108 4.71 4.71 4.71h48.46c2.601 0 4.71-2.109 4.71-4.71v-22.58c0-2.601-2.109-4.71-4.71-4.71z" fill="#fff" opacity=".45"/><path d="m537.09 436.029h-7.69c-.502 0-.91.408-.91.91v.91c0 .503.408.91.91.91h7.69c.503 0 .91-.407.91-.91v-.91c0-.502-.407-.91-.91-.91z" fill="#4d61fc"/><path d="m568.139 436.029h-26.19c-.502 0-.91.408-.91.91v.91c0 .503.408.91.91.91h26.19c.503 0 .91-.407.91-.91v-.91c0-.502-.407-.91-.91-.91z" fill="#4d61fc"/><path d="m537.09 444.02h-7.69c-.502 0-.91.407-.91.91v.91c0 .502.408.91.91.91h7.69c.503 0 .91-.408.91-.91v-.91c0-.503-.407-.91-.91-.91z" fill="#4d61fc"/><path d="m558.139 444.02h-16.19c-.502 0-.91.407-.91.91v.91c0 .502.408.91.91.91h16.19c.503 0 .91-.408.91-.91v-.91c0-.503-.407-.91-.91-.91z" fill="#4d61fc"/><path d="m572.141 423.34h-48.47c-.618 0-1.23.122-1.801.359-.571.236-1.09.583-1.526 1.021-.437.437-.783.957-1.018 1.528-.236.572-.357 1.184-.355 1.802v1.61h57.88v-1.61c0-1.249-.497-2.447-1.38-3.331-.883-.883-2.081-1.379-3.33-1.379z" fill="#4d61fc"/><path d="m570.641 423.34h-48.46c-2.602 0-4.71 2.109-4.71 4.71v22.58c0 2.601 2.108 4.71 4.71 4.71h48.46c2.601 0 4.71-2.109 4.71-4.71v-22.58c0-2.601-2.109-4.71-4.71-4.71z" fill="#4d61fc"/><path d="m570.641 423.34h-48.46c-2.602 0-4.71 2.109-4.71 4.71v22.58c0 2.601 2.108 4.71 4.71 4.71h48.46c2.601 0 4.71-2.109 4.71-4.71v-22.58c0-2.601-2.109-4.71-4.71-4.71z" fill="#fff" opacity=".7"/><path d="m535.6 436.029h-7.69c-.503 0-.91.408-.91.91v.91c0 .503.407.91.91.91h7.69c.503 0 .91-.407.91-.91v-.91c0-.502-.407-.91-.91-.91z" fill="#4d61fc"/><path d="m566.651 436.029h-26.19c-.503 0-.91.408-.91.91v.91c0 .503.407.91.91.91h26.19c.502 0 .91-.407.91-.91v-.91c0-.502-.408-.91-.91-.91z" fill="#4d61fc"/><path d="m535.6 444.02h-7.69c-.503 0-.91.407-.91.91v.91c0 .502.407.91.91.91h7.69c.503 0 .91-.408.91-.91v-.91c0-.503-.407-.91-.91-.91z" fill="#4d61fc"/><path d="m556.651 444.02h-16.19c-.503 0-.91.407-.91.91v.91c0 .502.407.91.91.91h16.19c.502 0 .91-.408.91-.91v-.91c0-.503-.408-.91-.91-.91z" fill="#4d61fc"/><path d="m570.651 423.34h-48.47c-.619 0-1.231.122-1.803.358-.571.237-1.09.584-1.528 1.021-.437.438-.784.957-1.021 1.528-.236.572-.358 1.184-.358 1.803v1.61h57.88v-1.61c.001-.618-.12-1.23-.355-1.802-.236-.571-.582-1.091-1.018-1.528-.437-.438-.955-.785-1.526-1.021-.571-.237-1.183-.359-1.801-.359z" fill="#4d61fc"/><path d="m899.119 250.199h-48.46c-2.601 0-4.71 2.109-4.71 4.71v22.58c0 2.601 2.109 4.71 4.71 4.71h48.46c2.601 0 4.71-2.109 4.71-4.71v-22.58c0-2.601-2.109-4.71-4.71-4.71z" fill="#4d61fc"/><path d="m899.119 250.199h-48.46c-2.601 0-4.71 2.109-4.71 4.71v22.58c0 2.601 2.109 4.71 4.71 4.71h48.46c2.601 0 4.71-2.109 4.71-4.71v-22.58c0-2.601-2.109-4.71-4.71-4.71z" fill="#fff" opacity=".45"/><path d="m864.081 262.891h-7.69c-.503 0-.911.407-.911.91v.91c0 .502.408.91.911.91h7.69c.502 0 .909-.408.909-.91v-.91c0-.503-.407-.91-.909-.91z" fill="#4d61fc"/><path d="m895.12 262.891h-26.19c-.503 0-.91.407-.91.91v.91c0 .502.407.91.91.91h26.19c.502 0 .91-.408.91-.91v-.91c0-.503-.408-.91-.91-.91z" fill="#4d61fc"/><path d="m864.081 270.869h-7.69c-.503 0-.911.408-.911.91v.91c0 .503.408.91.911.91h7.69c.502 0 .909-.407.909-.91v-.91c0-.502-.407-.91-.909-.91z" fill="#4d61fc"/><path d="m885.12 270.869h-16.19c-.503 0-.91.408-.91.91v.91c0 .503.407.91.91.91h16.19c.502 0 .91-.407.91-.91v-.91c0-.502-.408-.91-.91-.91z" fill="#4d61fc"/><path d="m899.119 250.199h-48.47c-.617-.001-1.229.12-1.8.355-.571.236-1.089.582-1.526 1.019s-.783.955-1.019 1.526c-.235.571-.356 1.183-.355 1.8v1.62h57.88v-1.62c0-.618-.122-1.23-.359-1.801-.236-.571-.583-1.089-1.021-1.526-.437-.436-.957-.782-1.528-1.018-.571-.235-1.184-.356-1.802-.355z" fill="#4d61fc"/><path d="m897.619 250.199h-48.46c-2.601 0-4.71 2.109-4.71 4.71v22.58c0 2.601 2.109 4.71 4.71 4.71h48.46c2.601 0 4.71-2.109 4.71-4.71v-22.58c0-2.601-2.109-4.71-4.71-4.71z" fill="#4d61fc"/><path d="m897.619 250.199h-48.46c-2.601 0-4.71 2.109-4.71 4.71v22.58c0 2.601 2.109 4.71 4.71 4.71h48.46c2.601 0 4.71-2.109 4.71-4.71v-22.58c0-2.601-2.109-4.71-4.71-4.71z" fill="#fff" opacity=".7"/><path d="m862.581 262.891h-7.69c-.503 0-.911.407-.911.91v.91c0 .502.408.91.911.91h7.69c.502 0 .909-.408.909-.91v-.91c0-.503-.407-.91-.909-.91z" fill="#4d61fc"/><path d="m893.629 262.891h-26.19c-.502 0-.91.407-.91.91v.91c0 .502.408.91.91.91h26.19c.503 0 .91-.408.91-.91v-.91c0-.503-.407-.91-.91-.91z" fill="#4d61fc"/><path d="m862.581 270.869h-7.69c-.503 0-.911.408-.911.91v.91c0 .503.408.91.911.91h7.69c.502 0 .909-.407.909-.91v-.91c0-.502-.407-.91-.909-.91z" fill="#4d61fc"/><path d="m883.629 270.869h-16.19c-.502 0-.91.408-.91.91v.91c0 .503.408.91.91.91h16.19c.503 0 .91-.407.91-.91v-.91c0-.502-.407-.91-.91-.91z" fill="#4d61fc"/><path d="m897.629 250.199h-48.47c-.618-.001-1.23.12-1.801.355-.572.236-1.091.582-1.529 1.018-.437.437-.784.955-1.021 1.526s-.359 1.183-.359 1.801v1.62h57.89v-1.62c0-.618-.122-1.23-.359-1.801-.236-.571-.583-1.089-1.021-1.526-.437-.436-.957-.782-1.528-1.018-.571-.235-1.184-.356-1.802-.355z" fill="#4d61fc"/><path d="m1017.07 328.529h-48.46c-2.601 0-4.71 2.109-4.71 4.71v22.58c0 2.602 2.109 4.71 4.71 4.71h48.46c2.6 0 4.71-2.108 4.71-4.71v-22.58c0-2.601-2.11-4.71-4.71-4.71z" fill="#4d61fc"/><path d="m1017.07 328.529h-48.46c-2.601 0-4.71 2.109-4.71 4.71v22.58c0 2.602 2.109 4.71 4.71 4.71h48.46c2.6 0 4.71-2.108 4.71-4.71v-22.58c0-2.601-2.11-4.71-4.71-4.71z" fill="#fff" opacity=".45"/><path d="m982.02 341.221h-7.69c-.503 0-.91.407-.91.91v.91c0 .502.407.91.91.91h7.69c.503 0 .91-.408.91-.91v-.91c0-.503-.407-.91-.91-.91z" fill="#4d61fc"/><path d="m1013.07 341.221h-26.189c-.503 0-.91.407-.91.91v.91c0 .502.407.91.91.91h26.189c.5 0 .91-.408.91-.91v-.91c0-.503-.41-.91-.91-.91z" fill="#4d61fc"/><path d="m982.02 349.211h-7.69c-.503 0-.91.407-.91.91v.91c0 .503.407.91.91.91h7.69c.503 0 .91-.407.91-.91v-.91c0-.503-.407-.91-.91-.91z" fill="#4d61fc"/><path d="m1003.07 349.211h-16.189c-.503 0-.91.407-.91.91v.91c0 .503.407.91.91.91h16.189c.5 0 .91-.407.91-.91v-.91c0-.503-.41-.91-.91-.91z" fill="#4d61fc"/><path d="m1017.07 328.529h-48.47c-.618 0-1.23.122-1.801.359-.57.237-1.089.584-1.526 1.021-.436.438-.782.957-1.018 1.529-.235.571-.356 1.183-.355 1.801v1.61h57.88v-1.61c0-1.249-.5-2.447-1.38-3.33s-2.08-1.38-3.33-1.38z" fill="#4d61fc"/><path d="m1015.57 328.529h-48.46c-2.601 0-4.71 2.109-4.71 4.71v22.58c0 2.602 2.109 4.71 4.71 4.71h48.46c2.6 0 4.71-2.108 4.71-4.71v-22.58c0-2.601-2.11-4.71-4.71-4.71z" fill="#4d61fc"/><path d="m1015.57 328.529h-48.46c-2.601 0-4.71 2.109-4.71 4.71v22.58c0 2.602 2.109 4.71 4.71 4.71h48.46c2.6 0 4.71-2.108 4.71-4.71v-22.58c0-2.601-2.11-4.71-4.71-4.71z" fill="#fff" opacity=".7"/><path d="m980.53 341.221h-7.69c-.503 0-.91.407-.91.91v.91c0 .502.407.91.91.91h7.69c.502 0 .91-.408.91-.91v-.91c0-.503-.408-.91-.91-.91z" fill="#4d61fc"/><path d="m1011.58 341.221h-26.189c-.503 0-.911.407-.911.91v.91c0 .502.408.91.911.91h26.189c.5 0 .91-.408.91-.91v-.91c0-.503-.41-.91-.91-.91z" fill="#4d61fc"/><path d="m980.53 349.211h-7.69c-.503 0-.91.407-.91.91v.91c0 .503.407.91.91.91h7.69c.502 0 .91-.407.91-.91v-.91c0-.503-.408-.91-.91-.91z" fill="#4d61fc"/><path d="m1001.58 349.211h-16.189c-.503 0-.911.407-.911.91v.91c0 .503.408.91.911.91h16.189c.5 0 .91-.407.91-.91v-.91c0-.503-.41-.91-.91-.91z" fill="#4d61fc"/><path d="m1015.58 328.529h-48.47c-1.249 0-2.447.497-3.33 1.38s-1.38 2.081-1.38 3.33v1.61h57.88v-1.61c0-.618-.12-1.23-.35-1.801-.24-.572-.59-1.091-1.02-1.529-.44-.437-.96-.784-1.53-1.021s-1.18-.359-1.8-.359z" fill="#4d61fc"/><path d="m1490.24 961.6h-1380.49v1h1380.49z" fill="#b2b6bb"/></svg>