<svg height="297mm" viewBox="0 0 744.09448819 1052.3622047" width="210mm" xmlns="http://www.w3.org/2000/svg" xmlns:xlink="http://www.w3.org/1999/xlink"><linearGradient id="a" gradientUnits="userSpaceOnUse" x1="226.358541" x2="553.59852" y1="722.36219" y2="340.542199"><stop offset="0" stop-color="#4e505d"/><stop offset="1" stop-color="#7a859c"/></linearGradient><path d="m189.99854 322.3622h400.00146v399.99998h-400.00146z" fill="none"/><path d="m224.65234 336.36133c-11.47667 0-20.71679 9.24012-20.71679 20.71679v62.14649c0 11.47667 9.24012 20.7168 20.71679 20.7168h19.88477v30.85742h-19.50977c-11.47667 0-20.71679 9.24013-20.71679 20.71679v62.14649c0 11.47667 9.24012 20.7168 20.71679 20.7168h19.50977v30.41992h-19.50977c-11.47667 0-20.71679 9.24013-20.71679 20.71679v62.14649c0 11.47667 9.24012 20.7168 20.71679 20.7168h129.98047c-6.60379-6.62633-11.79445-15.49274-11.79492-26.04688a18.0018 18.0018 0 0 1 .0117-.47851v-33.82618a18.0018 18.0018 0 0 1 2.80078-9.59765c-1.71737-3.93274-2.75823-8.24374-2.79883-12.89258a18.0018 18.0018 0 0 1 -.002-.1582v-20.58008h-75.00586v-30.41992h75.66602c-.40419-1.97498-.63969-4.02074-.65821-6.14063a18.0018 18.0018 0 0 1 -.002-.1582v-34.55078a18.0018 18.0018 0 0 1 2.80078-9.61719c-1.74817-4.0089-2.80057-8.404-2.80078-13.14063-.0005-12.47652 7.2439-22.60856 15.51367-29.45117 4.99517-4.13311 10.66121-7.55274 16.9336-10.52148h-107.45313v-30.85742h243.51953v14.73047c8.23762.90264 16.1552 2.11518 23.67969 3.61718v-18.34765h19.17969c11.47667 0 20.71679-9.24013 20.71679-20.7168v-62.14649c0-11.47667-9.24012-20.71679-20.71679-20.71679h-329.94532zm250.95118 152.3789c-29.88202.00082-56.92567 4.41406-74.92969 10.71485-9.00282 3.15067-15.67776 6.86558-18.98438 9.60156-1.17244.97011-1.40233 1.30737-1.7539 1.71289.35153.40557.58069.74416 1.7539 1.71485 3.30694 2.73606 9.98154 6.45293 18.98438 9.60351 18.00567 6.30117 45.05295 10.71287 74.9375 10.71289 29.88477.00009 56.93354-4.4117 74.93945-10.71289 9.00296-3.15059 15.67737-6.86742 18.98438-9.60351.94797-.78434 1.03438-.97226 1.41796-1.38477-1.22883-.96535-9.15444-8.284-25.58007-13.29297-17.91641-5.46358-42.79949-9.05451-69.76172-9.06641h-.008zm-96.37891 75.78907v2.72461c.20722.27389.8326 1.07606 2.52148 2.46484 1.67352 1.37613 4.19033 2.99326 7.41797 4.66016h24.23242c-10.11463-2.0272-19.61954-4.56651-28.35351-7.62305-1.98299-.69397-3.89137-1.47141-5.81836-2.22656zm192.76367.004c-1.92309.75344-3.82584 1.53014-5.80469 2.22266-8.73404 3.05658-18.24022 5.59585-28.35547 7.62305h17.14454c7.06922 0 13.28031-3.51186 17.01562-8.88672zm-36.57031 10.33008c-7.5723 1.44101-15.48703 2.58729-23.67969 3.44141v9.47265c8.53573-1.06905 16.50535-2.4819 23.67969-4.16601zm36.57031 46.85156c-1.92755.7554-3.83478 1.53435-5.81836 2.22852-25.01973 8.7559-56.25003 13.37109-90.57031 13.37109-34.32029 0-65.55077-4.61526-90.57031-13.37109-1.97885-.69252-3.8816-1.46922-5.80469-2.22266v2.83203c.20722.27389.8326 1.07607 2.52148 2.46485 3.33803 2.74486 10.02799 6.4503 19.03125 9.5918 18.00653 6.28298 45.00437 10.67673 74.82227 10.67773 29.88477.00008 56.93159-4.4117 74.9375-10.71289 9.00296-3.1506 15.67932-6.86741 18.98633-9.60352 1.64822-1.36368 2.26018-2.14148 2.46484-2.4082zm.01172 57.29483c-1.93125.75702-3.84257 1.53687-5.83008 2.23242-25.01975 8.75591-56.25004 13.37109-90.57031 13.37109-34.32028 0-65.55075-4.61525-90.57031-13.37109-1.97885-.69252-3.8816-1.46922-5.80469-2.22266v2.62891c.20763.27036.81092 1.03938 2.45117 2.39648 3.30694 2.73607 9.98349 6.45293 18.98633 9.60352 18.00567 6.30117 45.05297 10.71286 74.9375 10.71289 29.88454-.00003 56.93184-4.41172 74.9375-10.71289 9.00283-3.15059 15.67743-6.86745 18.98437-9.60352 1.68408-1.39335 2.28728-2.17452 2.47852-2.42383zm-228.58789.65429c-.0139.0929-.0187.12219-.0137.0879l-.0117.16797a18.0018 18.0018 0 0 1 .0254-.25586z" fill="url(#a)"/><g fill="#fff"><rect height="21" ry="10.5" width="78.903175" x="223.99854" y="396.36221"/><rect height="21" ry="10.5" width="78.903175" x="224.33864" y="664.79968"/><rect height="21" ry="10.5" width="78.903175" x="224.33864" y="530.79968"/></g><path d="m475.61187 470.73986c-63.1748.00005-114.38776 17.92283-114.38688 40.03148.001 22.10817 51.21345 40.03019 114.38688 40.03024 63.17391.00019 114.38705-17.9219 114.3881-40.03024-.0453-.8149-.16165-1.62912-.34897-2.44153-.18028-1.03125-.47458-2.05965-.88224-3.08294-7.86871-19.76511-56.13323-34.48328-113.15689-34.50701zm-114.38688 62.78917v34.55125c.1926 22.05896 51.34145 39.90627 114.37459 39.90859 63.17391.00019 114.38705-17.92191 114.3881-40.03024v-5.71985 5.71984 22.75769c-.57961.52929-1.16708 1.05008-1.77063 1.54946-7.34947 6.08094-16.79465 10.76857-27.99217 14.68726-22.39504 7.83736-51.96728 12.36123-84.62529 12.36123-32.65802 0-62.22903-4.52387-84.62408-12.36123-11.19752-3.91869-20.64269-8.60632-27.99217-14.68726-.59931-.49587-1.1827-1.01294-1.75835-1.5384v34.65199c.1926 22.05898 51.34145 39.90629 114.37459 39.90861 63.1739.00018 114.38704-17.92191 114.3881-40.03024v-5.71985 5.71984 22.75768c-.57961.5293-1.16708 1.05009-1.77063 1.54945-7.34947 6.08095-16.79465 10.76858-27.99217 14.68727-22.39504 7.83737-51.96728 12.36122-84.62529 12.36122-32.65802 0-62.22903-4.52385-84.62408-12.36122-11.19752-3.91869-20.64269-8.60632-27.99217-14.68727-.59931-.49585-1.1827-1.01293-1.75835-1.53839v34.21948c-.004.0286-.008.0573-.0123.086.001 22.10816 51.21346 40.03019 114.38687 40.03024 63.17342-.00005 114.38582-17.92208 114.38687-40.03024h.0136v-148.80295c-.57961.52929-1.16709 1.05008-1.77064 1.54945-7.34947 6.08094-16.79465 10.76858-27.99217 14.68726-22.39504 7.83739-51.96729 12.36126-84.6253 12.36126-32.65802 0-62.22903-4.52387-84.62407-12.36124-11.19752-3.91868-20.6427-8.60631-27.99217-14.68725-.60354-.49938-1.19102-1.02017-1.77063-1.54946z" fill="#99b000"/></svg>