<svg viewBox="0 0 400 300" xmlns="http://www.w3.org/2000/svg"><ellipse cx="88.4" cy="256.54" fill="#e6e6e6" opacity=".45" rx="56.71" ry="10.74"/><path d="m91.17 76.3h209.1v137.4h-209.1z" fill="#e6e6e6"/><circle cx="101.28" cy="85.42" fill="#24285b" r="3.42"/><circle cx="111.44" cy="85.42" fill="#68e1fd" r="3.42"/><circle cx="121.02" cy="85.42" fill="#ffd200" r="3.42"/><path d="m266.38 76.3-49.25.2-7.88 11.09-74.25 68.19 6.1 11.85-20.85 8.22h-20.32l-2.69 37.85h23.76l3.36-22.1c19.89-2.65 33-20.88 33-20.88l86.64-37.05-11-25.34 14.63-7 .81 4.59s7.91-2.18 7.58-9.55-1.02-16.52 10.36-20.07z" opacity=".08"/><path d="m225.74 48.37c-1.21 9.69-6.21 29.71-26.74 38.63l3 5s28.57-9 35.46-32c3.09-10.35 1.12-14.84-2-16.66a6.58 6.58 0 0 0 -9.72 5.03z" fill="#68e1fd"/><path d="m225.74 48.37c-1.21 9.69-6.21 29.71-26.74 38.63l3 5s28.57-9 35.46-32c3.09-10.35 1.12-14.84-2-16.66a6.58 6.58 0 0 0 -9.72 5.03z" fill="#fff" opacity=".2"/><path d="m228.36 33.05 4.91 5.99 4.32-4.64-7.75-6.88z" fill="#f4a28c"/><path d="m224.9 22.05a4.57 4.57 0 0 0 -5.11 5.72c.91 3.5 2.87 8.27 6.61 6.63 5.71-2.5 2.71-10 2.71-10a8.35 8.35 0 0 0 -4.21-2.35z" fill="#f4a28c"/><path d="m232.49 68.94-9.74 5a7 7 0 0 0 -2.86 9.66l8.75 15.15 4.26-3-5-13.82a1.73 1.73 0 0 1 1.21-2.28l9.71-2.37-1.73 4.6a9.64 9.64 0 0 0 1 8.78l9 13.42 3.41-2.09-4.33-11.89a7.6 7.6 0 0 1 1.53-7.73l4.69-5.14z" fill="#24285b"/><path d="m268.35 191h58.5v37h-58.5z" fill="#f2f2f2"/><path d="m258.99 191h9.51v22.7h-9.51z" opacity=".08"/><path d="m217.61 23.32s-1.58 5.08 3.92 3.83 5.08-3 5.08-3 .42 6 3.17 4.67 1.17-4.6 0-6.84-1.86-2.91-5-3.24-6.78 1.5-7.17 4.58z" fill="#24285b"/><g fill="#f4a28c"><path d="m226.7 27.65s-.23-1.71 1.42-1.38 1 2.71 0 2.88-1.42-1.5-1.42-1.5z"/><path d="m81.73 157.66 2.45 7.35-5.81 3.69-2.1-12.74z"/><path d="m74.28 148.86a4.58 4.58 0 0 1 7.57-1.27c2.47 2.64 5.45 6.85 2.08 9.13-5.17 3.5-9.91-3-9.91-3a8.35 8.35 0 0 1 .26-4.86z"/><path d="m78.06 153.37s-1.33-1.11-1.93.46 1.74 2.34 2.44 1.54-.51-2-.51-2z"/></g><path d="m232.23 37.77 5.36-3.37s17.41-5.95 22.91-.48 5.89 26.11-8.11 43.31l-19.9-8.29s.4-9.9-2.91-12.4-7.38-10 2.65-18.77z" fill="#68e1fd"/><path d="m229.64 98s-1.09 5.06.86 4.88 2.4-7.18 2.4-7.18z" fill="#68e1fd"/><path d="m247.19 103.85s-1.09 5.05.86 4.88 2.39-7.18 2.39-7.18z" fill="#68e1fd"/><path d="m274.81 73.77s-3.36 1.45-2.12 3.11 5.49-.58 5.49-.58l.26-2.53z" fill="#f4a28c"/><path d="m199.41 87.59s-5.52.45-4.36 1.72a5.94 5.94 0 0 0 2.1 1.61s-4 4.47-1.09 5.36 5.75-4.68 5.75-4.68z" fill="#f4a28c"/><path d="m116.77 105.85h107.16v42.5h-107.16z" fill="#ffd200" transform="matrix(.91 -.42 .42 .91 -37.5 82.72)"/><path d="m155.02 111.38h51.5v7h-51.5z" fill="#fff" opacity=".58" transform="matrix(.90865399 -.41754992 .41754992 .90865399 -31.45 85.96)"/><path d="m161.07 124.56h51.5v7h-51.5z" fill="#fff" opacity=".58" transform="matrix(.90865399 -.41754992 .41754992 .90865399 -36.4 89.69)"/><circle cx="142.04" cy="141.07" fill="#fff" r="11.12"/><path d="m288.24 202.33-7.8 7.58 7.8 7.59" fill="none" stroke="#a5a5a5" stroke-linecap="round" stroke-linejoin="round" stroke-width="2"/><path d="m305.11 202.33 7.8 7.58-7.8 7.59" fill="none" stroke="#a5a5a5" stroke-linecap="round" stroke-linejoin="round" stroke-width="2"/><path d="m191.68 64.18s-9.61-2.58-11.68-11.5c0 0 14.85-3.07 15.34 12.27z" fill="#68e1fd" opacity=".58"/><path d="m192.85 63.22s-6.75-10.57-.89-20.5c0 0 11.33 7.13 6.37 20.5z" fill="#68e1fd" opacity=".73"/><path d="m194.58 63.22s3.49-11.2 14.19-13.37c0 0 2 7.26-6.88 13.37z" fill="#68e1fd"/><path d="m299.71 202.33-7.48 15.17" fill="none" stroke="#a5a5a5" stroke-linecap="round" stroke-linejoin="round" stroke-width="2"/><path d="m104.69 100.42h29.31v5.5h-29.31z" fill="#cecece" opacity=".63"/><path d="m77.07 167.25s-17.17 10.4-19.42 34.8a8.46 8.46 0 0 0 6.41 9l20.12 4.95z" fill="#68e1fd"/><path d="m77.07 167.25s-17.17 10.4-19.42 34.8a8.46 8.46 0 0 0 6.41 9l20.12 4.95z" fill="#fff" opacity=".2"/><path d="m187.62 63 2 13.3h12.25l1.75-13.3z" fill="#24285b"/><path d="m78.79 151.46s2.74 7.86-2.05 7.37-2.16-3.87-4.54-7.37-1.12-5.86 2.5-8.93c1.67-1.41 2.79-2.06 3.45-2.81a2.57 2.57 0 0 1 4.31.61c1.24 3.02 1.25 7.06-3.67 11.13z" fill="#24285b"/><path d="m256.33 112.62h43.94v69.09h-43.94z" opacity=".08"/><path d="m50 198.25h34.18v24.5h-34.18z" fill="#ffd200" transform="matrix(.97 -.25 .25 .97 -50.55 23.49)"/><path d="m67.09 197.85 3.8 15.85-.99 8.73 8.89-2.3 2.65-7.08-8.54-16.71z" opacity=".08"/><path d="m73.1 172.36a13.79 13.79 0 0 1 8.67-7.56c7.34-2.21 21.28-6.83 25.4 0 5.64 9.4-3 46.31-3 46.31l-24.67 1.91s-13.61-24.44-6.4-40.66z" fill="#68e1fd"/><path d="m104.13 211.14-3.25 42.41h-5.13l-4.58-32.95-11.34-7.55z" fill="#24285b"/><path d="m79.83 213.05-7.08 40.5h5.5l11.88-33.64z" fill="#24285b"/><path d="m92.44 170.45a7 7 0 0 1 6.56-9.13c3.14-.1 6.75.44 9.52 2.68 6.17 5 26.4 8.4 44.66-8.31l3.51 5.39s-20.74 27-53.22 19.24a15.2 15.2 0 0 1 -10.9-9.56c-.05-.1-.09-.21-.13-.31z" fill="#68e1fd"/><path d="m92.44 170.45a7 7 0 0 1 6.56-9.13c3.14-.1 6.75.44 9.52 2.68 6.17 5 26.4 8.4 44.66-8.31l3.51 5.39s-20.74 27-53.22 19.24a15.2 15.2 0 0 1 -10.9-9.56c-.05-.1-.09-.21-.13-.31z" fill="#fff" opacity=".2"/><path d="m83.9 164.15s-11.54 37.17 21.78 39.63l-1.55 7.36-24.67 1.91a64 64 0 0 1 -8.33-32.82s.21-9.48 6.89-13.67a15.09 15.09 0 0 1 5.88-2.41z" opacity=".08"/><path d="m73.75 253.55-3.41 2.51a.75.75 0 0 0 .44 1.36h5.72a.76.76 0 0 0 .75-.75v-3.12z" fill="#68e1fd"/><path d="m100.74 253.55 3.21 2.51a.76.76 0 0 1 -.47 1.36h-4.07a2.18 2.18 0 0 1 -2.17-2.18v-1.69z" fill="#68e1fd"/><path d="m266.38 99.17h72.63v74.58h-72.63z" fill="#f2f2f2"/><path d="m279.5 117.57h44.75v2.68h-44.75z" fill="#a5a5a5"/><path d="m279.5 134.5h44.75v2.68h-44.75z" fill="#a5a5a5"/><path d="m279.5 151.43h44.75v2.68h-44.75z" fill="#a5a5a5"/><rect fill="#24285b" height="12.58" rx="3.92" width="7.85" x="318" y="112.62"/><rect fill="#68e1fd" height="12.58" rx="3.92" width="7.85" x="300.27" y="129.55"/><rect fill="#ffd200" height="12.58" rx="3.92" width="7.85" x="288.27" y="146.49"/><path d="m163.38 177.79h81.97v18.68h-81.97z" fill="#fff"/><path d="m217.4 177.79h27.95v18.68h-27.95z" fill="#24285b"/><path d="m155.77 159.69s4.28 1.4 5.19-4.9l-7.27 1.71z" fill="#f4a28c"/><path d="m240.69 72.35s8.7-1.66 11.7-13.66-3.39-21.53 2.78-23 8.73 14.18 8.73 14.18.24 12.24-11.51 27.38z" opacity=".08"/><path d="m259.17 32.85c5.12 1.82 13.12 5.44 18.52 11.57a16 16 0 0 1 3.81 12.89l-2.42 16.46h-5.75l.26-15a7.38 7.38 0 0 0 -5.19-7.11c-6.21-1.9-15.74-6.12-15.75-14.12a4.9 4.9 0 0 1 6.52-4.69z" fill="#68e1fd"/><path d="m259.17 32.85c5.12 1.82 13.12 5.44 18.52 11.57a16 16 0 0 1 3.81 12.89l-2.42 16.46h-5.75l.26-15a7.38 7.38 0 0 0 -5.19-7.11c-6.21-1.9-15.74-6.12-15.75-14.12a4.9 4.9 0 0 1 6.52-4.69z" fill="#fff" opacity=".2"/><path d="m207.67 164.15h37.33v4.54h-37.33z" opacity=".08"/></svg>